<?xml version="1.0" encoding="utf-8"?>
<!-- Generator: Adobe Illustrator 16.0.4, SVG Export Plug-In . SVG Version: 6.00 Build 0)  -->
<!DOCTYPE svg PUBLIC "-//W3C//DTD SVG 1.1//EN" "http://www.w3.org/Graphics/SVG/1.1/DTD/svg11.dtd">
<svg version="1.1" id="Layer_1" xmlns="http://www.w3.org/2000/svg" xmlns:xlink="http://www.w3.org/1999/xlink" x="0px" y="0px"
	 width="51.05px" height="70px" viewBox="0 0 51.05 70" enable-background="new 0 0 51.05 70" xml:space="preserve">
<g>
	<defs>
		<rect id="SVGID_1_" width="51.05" height="70"/>
	</defs>
	<clipPath id="SVGID_2_">
		<use xlink:href="#SVGID_1_"  overflow="visible"/>
	</clipPath>
	<path clip-path="url(#SVGID_2_)" fill-rule="evenodd" clip-rule="evenodd" fill="#231F20" d="M11.084,69.412
		c-1.278-0.834-1.873-1.611-2.04-3.055C2.99,65.801,4.657,59.693,8.6,57.193c-0.111-0.722-0.222-1.443-0.278-2.11
		c-1.944-2.61-12.996-18.216-4.72-18.993c0.268,0.018,0.546,0.184,0.777,0.443c1.444,2.166,2,5.277,3.277,7.721
		c1-5.276,1.222-5.498,1.555-6.942c-2.777,0-5.999-2.478-7.553-4.61c-0.849-1.165-1.206-3.287-1.21-3.894
		c-0.228-1.388-0.289-2.497-0.183-3.826c0.055-0.686,0.858-2.787,0.974-3.045c2.719-6.079,2.293-6.158,5.139-12.283
		C7.932,6.311,8.822,5.766,12.099,4.6c5.165-4.221,11.829-5.665,18.049-2.666c4.443,2.555,6.109,6.275,7.998,10.829
		c3.275,1.222,6.108,2.722,8.773,4.999c5,1.388,3.666,4.11,3.666,8.497c-0.61,3.054-0.943,3.721-0.943,4.276
		c1.499,3.721,0.312,9.017-4.61,7.775c-0.884-0.223-1.444-1.11-2.11-1.666c-1.389,0.5-2.776,1-4.109,1.5
		c0.072,0.586,0.407,2.127,0.61,3.055c0.5,5.387,0.5,10.219-0.666,15.439c3.11,2.332,5.405,5.457,2.21,8.607
		c-0.795,0.785-0.933,0.833-2.654,1.333c-0.277,1.167-0.611,1.833-1.611,2.61c-1.449,0.79-4.453,1.025-6.297,0.227
		c-0.791-0.342-2.012-0.922-3.033-1.615c-1.277-1.388-1.443-2.443-1.776-4.221c-1.278,0-2.555,0.057-3.833,0.111
		c-0.389,2.443-1.444,3.943-3.554,5.332C15.738,70.297,12.864,69.953,11.084,69.412"/>
	<path clip-path="url(#SVGID_2_)" fill-rule="evenodd" clip-rule="evenodd" fill="#FFFFFF" d="M13.487,44.42
		c0.555-3.498,1.111-4.776,4.221-6.332c4.166,0,8.997,0.611,8.997-4.887c-1.722-5.054-3.443-9.219-0.333-13.995
		c2.443-2.444,3.61-3.666,2.943-7.22c-1.499-3.554-3.499-7.053-5.442-10.441c0-0.167,0-0.167,1.11,0c0,0.167,0,0.333,0.056,0.5
		c3.832,6.11,4.832,10.108,11.94,11.386c2.833,1.11,5.665,2.443,8.108,4.221c-0.254,0.18-0.32-0.014-2.055,1
		c-1.611,1.611-2.678,2.406-2.277,4.388c1.666,3.776,5.443,3.776,8.72,1.944c-1.222,6.109-12.552,7.164-17.106,7.775
		c-4.221,2,4.889,3.333,6.055,3.555c-3.222,1.333-8.275,0.61-11.663,0.556c-0.056,0.333-0.11,0.666-0.11,1
		c1.666,0.166,3.332,0.332,4.998,0.555c0.999,1.61,2.166,3.221,2.388,5.165c-0.722,5.554-0.056,11.94,0.61,17.494
		c0.723,1.444,3.223,4.776,1.333,6.109c-3.165,0.61-6.664-0.056-7.941-3.11c0.333-4.775,0.722-9.553,0.722-14.328
		c-0.111-0.278-0.223-0.556-0.277-0.834c-0.166,0.223-0.334,0.5-0.5,0.777c-0.277,3.943-0.555,7.887-0.777,11.83
		c-1.277,0.611-4.61,0.223-6.165,0.223c-0.445-5.665-0.445-5.665-0.611-10.553c-0.389-1.777-0.389-1.777-0.667-2.277
		c-1.555,4.777,0.667,10.775,0.111,15.773c-1.666,2.555-4.665,3.055-7.608,2.499c-1.944-1.222,0.611-4.888,1.11-6.276
		c0.667-4.887,0.722-9.996,0.722-14.939c-0.111-0.5-0.223-0.999-0.278-1.443C13.709,44.476,13.598,44.42,13.487,44.42"/>
	<path clip-path="url(#SVGID_2_)" fill-rule="evenodd" clip-rule="evenodd" fill="#B28D2F" d="M3.102,41.643
		c0.5-0.499,1-0.943,1.499-1.388c1.111,2.943,2.388,5.442,4.499,7.831c0.444-3.832,1.056-7.387,2.111-11.053
		c7.331-0.111,12.107-2.221,12.496-10.052c-0.121-0.954-0.257-1.922-0.444-2.944c-2.333-7.608-4.277-14.773-4.888-16.272
		c-1-1.833-2.055-2.443-3.832-3.332c3.055-1.833,5.554-3.221,9.33-2.888c1.944,3.388,3.944,6.887,5.443,10.441
		c0.667,3.555-0.5,4.776-2.943,7.22c-3.11,4.776-1.389,8.941,0.333,13.995c0,5.498-4.832,4.888-8.997,4.888
		c-3.11,1.555-3.666,2.833-4.221,6.331c-1.11,4.998-0.778,10.774-1.055,15.939c-0.611,1.333-1.222,2.666-1.833,4.054
		c-3.554,0-4.387-1.388-2.943-4.665c0.944-1.11,1.833-1.61,3.11-2.277c0-3.609-3.054-6.498-4.832-9.385
		C4.435,45.143,4.435,45.143,3.102,41.643"/>
	<path clip-path="url(#SVGID_2_)" fill-rule="evenodd" clip-rule="evenodd" fill="#B28D2F" d="M34.036,43.587
		c-0.222-1.944-1.389-3.554-2.388-5.165c1.832-0.222,3.721-0.389,5.609-0.555c1.888,6.998,1.777,12.439,0.166,19.493
		c3.609,1.777,6.498,7.108,0.166,7.108c-0.666-1.277-1.277-2.555-1.888-3.832c-0.333-4.942-0.666-9.941-0.777-14.939
		C34.758,44.865,34.592,44.254,34.036,43.587"/>
	<path clip-path="url(#SVGID_2_)" fill-rule="evenodd" clip-rule="evenodd" fill="#FFFFFF" d="M3.102,41.643
		c-0.278-1.332-1-3.055-0.333-4.387c0.263-0.244,0.497-0.314,0.722,0c0.5,1.055,1,1.777,1.111,2.999
		C4.102,40.699,3.602,41.144,3.102,41.643"/>
	<path clip-path="url(#SVGID_2_)" fill-rule="evenodd" clip-rule="evenodd" fill="#EE7A22" d="M45.811,36.367
		c-1.111-0.667-2.889-2.388-3.055-3.61c1.777-0.555,3.275-1.444,4.887-2.443c2.11,1.61,1.777,4.443-0.223,5.888
		C46.865,36.494,46.311,36.497,45.811,36.367"/>
	<path clip-path="url(#SVGID_2_)" fill-rule="evenodd" clip-rule="evenodd" fill="#B28D2F" d="M11.376,35.812
		C-4.785,32.591,4.101,18.15,9.1,8.154c2.833-3.833,6.554-3,8.664,0.833c1.889,7.164,1.889,7.164,4.11,14.106
		c0.555,3.443,1.146,6.332-0.777,9.497C18.041,35.645,15.542,35.701,11.376,35.812"/>
	<path clip-path="url(#SVGID_2_)" fill-rule="evenodd" clip-rule="evenodd" fill="#9C7A32" d="M12.099,34.257
		c-0.611-0.167-1.222-0.333-1.777-0.445c4.332-2.332,7.719-4.387,10.607-8.552c0.111,0,0.222,0.056,0.333,0.111
		C21.263,31.868,18.264,33.535,12.099,34.257"/>
	<path clip-path="url(#SVGID_2_)" fill-rule="evenodd" clip-rule="evenodd" fill="#FFFFFF" d="M42.645,21.538
		c0-1.777,4.832-3.554,5.942-2.443C47.143,20.983,44.922,21.372,42.645,21.538"/>
	<path clip-path="url(#SVGID_2_)" fill-rule="evenodd" clip-rule="evenodd" fill="#404041" d="M23.153,14.302
		c-1.093-0.277-2.668-1.261-1.669-3.038c0.428-0.478,1.379-0.723,2.049-0.794c2.756-0.297,4.881,2.347,1.395,3.821
		C24.354,14.429,23.907,14.493,23.153,14.302"/>
	<path clip-path="url(#SVGID_2_)" fill-rule="evenodd" clip-rule="evenodd" fill="#B28D2F" d="M24.983,1.545
		c4.499,0.777,8.442,3.055,10.274,7.442c-2.499,0.222-3.443,1.999-1.055,3.388c0.666,0.2,2.276-0.093,2.534-0.191
		c0.056,0.389,0.131,0.857,0.242,1.246c-7.108-1.277-8.108-5.276-11.94-11.385C24.983,1.878,24.983,1.712,24.983,1.545"/>
	<path clip-path="url(#SVGID_2_)" fill-rule="evenodd" clip-rule="evenodd" fill="#FFFFFF" d="M22.762,11.986
		c-0.111-0.389-0.278-0.389-0.333-0.721c0.389-0.167,0.389-0.167,1.055-0.111c0.111,0.111-0.089,0.222,0.022,0.389
		c-0.167,0.222-0.2,0.199-0.312,0.422C22.917,11.964,22.984,11.93,22.762,11.986"/>
	<path clip-path="url(#SVGID_2_)" fill-rule="evenodd" clip-rule="evenodd" fill="#FFFFFF" d="M33.914,10.553
		c-0.111-0.444-0.167-0.155,0.055-0.489c0.889,0,0.733-0.244,0.566,0.589C34.258,10.708,34.136,10.498,33.914,10.553"/>
	<path clip-path="url(#SVGID_2_)" fill-rule="evenodd" clip-rule="evenodd" fill="#AA3123" d="M45.381,31.665
		c1.053,1.031,1.826,2.217,2.348,3.903c0.062-0.102,0.143-0.123,0.204-0.224c-0.201-1.15-0.86-2.407-2.204-3.883
		C45.633,31.542,45.477,31.583,45.381,31.665"/>
	<path clip-path="url(#SVGID_2_)" fill-rule="evenodd" clip-rule="evenodd" fill="#FFFFFF" d="M34.171,9.849
		c0.354,0,0.644,0.227,0.644,0.506s-0.289,0.506-0.644,0.506s-0.644-0.227-0.644-0.506S33.816,9.849,34.171,9.849"/>
	<path clip-path="url(#SVGID_2_)" fill-rule="evenodd" clip-rule="evenodd" fill="#FFFFFF" d="M23.067,11.041
		c0.393,0,0.71,0.25,0.71,0.559c0,0.309-0.318,0.559-0.71,0.559c-0.392,0-0.71-0.25-0.71-0.559
		C22.357,11.292,22.675,11.041,23.067,11.041"/>
</g>
</svg>
