<?xml version="1.0" encoding="utf-8"?>
<!-- Generator: Adobe Illustrator 16.0.4, SVG Export Plug-In . SVG Version: 6.00 Build 0)  -->
<!DOCTYPE svg PUBLIC "-//W3C//DTD SVG 1.1//EN" "http://www.w3.org/Graphics/SVG/1.1/DTD/svg11.dtd">
<svg version="1.1" id="Layer_1" xmlns="http://www.w3.org/2000/svg" xmlns:xlink="http://www.w3.org/1999/xlink" x="0px" y="0px"
	 width="56.874px" height="70.163px" viewBox="0 0 56.874 70.163" enable-background="new 0 0 56.874 70.163" xml:space="preserve">
<g id="g14">
	<g id="g22">
	</g>
	<g id="g20">
		<g id="g28">
			<defs>
				<rect id="SVGID_1_" x="17.327" y="60.578" width="35.96" height="9.604"/>
			</defs>
			<clipPath id="SVGID_2_">
				<use xlink:href="#SVGID_1_"  overflow="visible"/>
			</clipPath>
			<g id="g30" opacity="0.68" clip-path="url(#SVGID_2_)">
				<g id="g32" transform="translate(273.9639,347.3574)">
					<path id="path34" fill="#605653" d="M-256.637-281.977c0,2.653,8.05,4.803,17.98,4.803c9.931,0,17.98-2.149,17.98-4.803
						c0-2.652-8.05-4.803-17.98-4.803C-248.587-286.78-256.637-284.629-256.637-281.977"/>
				</g>
			</g>
		</g>
	</g>
	<g id="g36" transform="translate(275.6665,436)">
		<path id="path38" fill="#FFF4C5" d="M-257.385-420.347c1.06,0.474-3.288-3.77-5.89-1.497c-0.488,0.427-0.982,2.875-1.028,3.74
			c-0.125,2.338,1.215,5.983,3.619,5.401L-257.385-420.347z"/>
	</g>
	<g id="g40" transform="translate(275.6665,436)">
		<path id="path42" fill="#230904" d="M-257.385-420.347c-0.483,1.302-0.974,2.603-1.497,3.888
			c-0.521,1.287-1.026,2.581-1.575,3.855l-0.048,0.112l-0.121,0.031c-0.409,0.104-0.864,0.102-1.276-0.039
			c-0.413-0.138-0.768-0.392-1.06-0.685c-0.586-0.593-0.941-1.335-1.188-2.085c-0.245-0.754-0.385-1.537-0.404-2.332
			c-0.021-0.811,0.151-1.577,0.326-2.329c0.093-0.377,0.198-0.752,0.33-1.124c0.067-0.185,0.14-0.37,0.235-0.553
			c0.077-0.178,0.265-0.397,0.422-0.494c0.654-0.502,1.524-0.651,2.302-0.522c0.785,0.129,1.505,0.462,2.161,0.869
			c0.327,0.206,0.641,0.433,0.934,0.685c0.146,0.126,0.286,0.26,0.415,0.402c0.065,0.072,0.128,0.146,0.179,0.229
			c0.016,0.034,0.07,0.104,0.005,0.133C-257.298-420.304-257.341-420.328-257.385-420.347 M-257.385-420.347
			c0.044,0.016,0.092,0.035,0.137,0.03c0.043-0.017,0-0.077-0.021-0.11c-0.056-0.077-0.122-0.145-0.191-0.211
			c-0.138-0.13-0.287-0.251-0.439-0.365c-0.303-0.231-0.624-0.438-0.956-0.622c-0.664-0.363-1.383-0.643-2.121-0.721
			c-0.732-0.093-1.488,0.07-2.047,0.529c-0.161,0.122-0.22,0.207-0.303,0.379c-0.075,0.16-0.138,0.334-0.195,0.511
			c-0.113,0.355-0.202,0.723-0.28,1.093c-0.14,0.741-0.296,1.492-0.261,2.218c0.031,0.738,0.178,1.477,0.42,2.175
			c0.248,0.692,0.589,1.361,1.069,1.878c0.478,0.52,1.156,0.792,1.831,0.619l-0.17,0.143c0.551-1.273,1.146-2.528,1.726-3.79
			C-258.611-417.853-258.001-419.101-257.385-420.347"/>
	</g>
	<g id="g44" transform="translate(245.4189,393.2949)">
		<path id="path46" fill="#FFF4C5" d="M-244.105-353.685c-1.519-3.453-1.73-13.803,7-16.104c5.512-1.453,13.959,1.264,8.735,20.283
			c-0.873,3.177-1.005,11.296,4.658,12.329l2.808,2.295c0,0,0.489,1.689,0.062,1.709c-7.088,0.311-12.471-6.961-10.453-16.779
			c0.895-4.353,5.676-16.606-5.089-16.192c-2.351,0.09-5.711,0.823-5.449,11.129C-241.834-355.016-242.394-349.792-244.105-353.685"
			/>
	</g>
	<g id="g48" transform="translate(245.4189,393.2949)">
		<path id="path50" fill="none" stroke="#2D0C03" stroke-width="0.75" stroke-miterlimit="10" d="M-244.105-353.685
			c-1.519-3.453-1.73-13.803,7-16.104c5.512-1.453,13.959,1.264,8.735,20.283c-0.873,3.177-1.005,11.296,4.658,12.329l2.808,2.295
			c0,0,0.489,1.689,0.062,1.709c-7.088,0.311-12.471-6.961-10.453-16.779c0.895-4.353,5.676-16.606-5.089-16.192
			c-2.351,0.09-5.711,0.823-5.449,11.129C-241.834-355.016-242.394-349.792-244.105-353.685z"/>
	</g>
	<g id="g52" transform="translate(331.4102,434)">
		<path id="path54" fill="#FFF4C5" d="M-281.857-417.225c-1.081,0.604,3.21-4.786,5.848-2.057c0.377,0.39,1.209,3.034,1.227,3.74
			c0.084,3.272-1.694,4.902-3.716,5.401L-281.857-417.225z"/>
	</g>
	<g id="g56" transform="translate(331.4102,434)">
		<path id="path58" fill="#230904" d="M-281.857-417.225c0.624,1.15,1.238,2.305,1.827,3.472c0.584,1.168,1.193,2.326,1.754,3.506
			l-0.281-0.134c0.718-0.185,1.395-0.521,1.939-1.006c0.542-0.487,0.961-1.103,1.222-1.791c0.263-0.689,0.367-1.441,0.371-2.192
			c0.018-0.353-0.084-0.714-0.169-1.089c-0.088-0.371-0.192-0.741-0.306-1.108c-0.113-0.365-0.236-0.73-0.379-1.08
			c-0.068-0.167-0.158-0.361-0.234-0.47c-0.108-0.127-0.252-0.258-0.395-0.364c-0.579-0.445-1.365-0.522-2.085-0.318
			c-0.727,0.19-1.402,0.588-2.01,1.055c-0.305,0.235-0.592,0.492-0.86,0.77c-0.135,0.138-0.265,0.281-0.382,0.435
			c-0.057,0.077-0.114,0.156-0.153,0.242c-0.016,0.038-0.043,0.104,0.006,0.115C-281.946-417.181-281.9-417.205-281.857-417.225
			 M-281.857-417.225c-0.042,0.023-0.084,0.051-0.137,0.052c-0.067-0.015-0.035-0.095-0.023-0.132
			c0.034-0.093,0.087-0.176,0.139-0.258c0.107-0.164,0.228-0.318,0.354-0.467c0.254-0.296,0.533-0.572,0.829-0.828
			c0.594-0.506,1.26-0.955,2.027-1.201c0.756-0.253,1.679-0.201,2.363,0.292c0.172,0.122,0.323,0.248,0.473,0.409
			c0.153,0.205,0.221,0.369,0.31,0.556c0.164,0.363,0.302,0.73,0.431,1.101s0.247,0.745,0.353,1.125
			c0.095,0.377,0.207,0.775,0.201,1.202c0.011,0.797-0.081,1.61-0.357,2.38c-0.266,0.771-0.735,1.487-1.368,2.016
			c-0.629,0.535-1.39,0.89-2.176,1.076l-0.196,0.046l-0.086-0.18c-0.56-1.18-1.068-2.384-1.604-3.577
			C-280.857-414.807-281.362-416.014-281.857-417.225"/>
	</g>
	<g id="g60" transform="translate(289.1924,392.4053)">
		<path id="path62" fill="#FFF4C5" d="M-263.323-352.296c0,0-10.483,16.169,2.132,20.984c2.686,1.024,4.984,2.256,9.59,1.122
			c3.275-0.807,5.773-3.92,6.822-6.145c0,0,2.525-3.673,0-8.582c0,0-2.664-1.792-2.734-6.786l-15.406-0.798L-263.323-352.296z"/>
	</g>
	<g id="g64" transform="translate(289.1924,392.4053)">
		<path id="path66" fill="none" stroke="#1E0802" stroke-width="0.5" stroke-miterlimit="10" d="M-263.323-352.296
			c0,0-10.483,16.169,2.132,20.984c2.686,1.024,4.984,2.256,9.59,1.122c3.275-0.807,5.773-3.92,6.822-6.145c0,0,2.525-3.673,0-8.582
			c0,0-2.664-1.792-2.734-6.786l-15.406-0.798L-263.323-352.296z"/>
	</g>
	<g id="g68" transform="translate(286,394.3633)">
		<path id="path70" fill="#FFF4C5" d="M-261.921-355.353l-2.296,5.627l1.148,1.632l3.845-2.192l1.33-4.769L-261.921-355.353z"/>
	</g>
	<g id="g72" transform="translate(291.5288,371.9551)">
		<path id="path74" fill="#FFFFFF" d="M-264.348-320.374c0,4.423,3.256,8.009,7.275,8.009c4.018,0,7.274-3.586,7.274-8.009
			c0-4.425-3.257-8.01-7.274-8.01C-261.092-328.383-264.348-324.798-264.348-320.374"/>
	</g>
	<g id="g76" transform="translate(304,463.5)">
		<path id="path78" fill="#FFF4C5" d="M-269.824-463.274c0,0,0.936,3.927-5.049,5.984c0,0-7.68,1.536-11.463,8.684
			c-0.177,0.334-0.346,0.681-0.504,1.04c0,0-1.369,3.361-2.178,7.645c-0.109,0.579-0.082,8.905,4.585,12.578
			c3.501,2.756,7.964,5.917,16.293,5.583c2.156-0.086,4.733-0.393,7.451-1.547c1.631-0.691,3.312-1.69,4.984-3.128
			c4.639-3.991,4.711-10.93,4.711-12.435c0-2.992-1.349-7.717-3.122-10.378c0,0-4.302-5.984-9.911-7.479
			c0,0,0.749-2.805,0.188-4.301c0,0-1.684,2.244-2.992,2.619C-266.832-458.412-266.084-461.778-269.824-463.274"/>
	</g>
	<g id="g80" transform="translate(304.0186,463.5464)">
		<path id="path82" fill="#1E0802" d="M-269.832-463.346c0.967,0.366,1.882,0.974,2.462,1.866c0.289,0.441,0.49,0.94,0.598,1.458
			c0.104,0.521,0.129,1.05,0.04,1.59l-0.151-0.143c0.598-0.202,1.116-0.648,1.59-1.102c0.474-0.462,0.912-0.969,1.311-1.494
			l0.175-0.23l0.097,0.269c0.262,0.733,0.25,1.492,0.202,2.225c-0.057,0.738-0.177,1.458-0.352,2.181l-0.136-0.234
			c2.189,0.572,4.15,1.767,5.887,3.166c0.869,0.705,1.688,1.469,2.458,2.279c0.385,0.405,0.761,0.82,1.116,1.252
			c0.178,0.216,0.354,0.435,0.524,0.659c0.188,0.245,0.319,0.478,0.47,0.723c1.129,1.961,1.854,4.099,2.357,6.278
			c0.242,1.095,0.423,2.202,0.464,3.343c0.021,1.123-0.049,2.244-0.193,3.355c-0.297,2.218-0.915,4.422-2.027,6.393
			c-0.556,0.982-1.238,1.898-2.047,2.691c-0.822,0.787-1.712,1.455-2.65,2.072c-1.874,1.226-3.977,2.102-6.162,2.575
			c-2.186,0.478-4.426,0.586-6.646,0.495c-2.221-0.108-4.437-0.484-6.535-1.229c-2.1-0.74-4.06-1.836-5.86-3.135
			c-0.452-0.322-0.895-0.656-1.333-0.995c-0.439-0.333-0.88-0.693-1.267-1.098c-0.781-0.806-1.409-1.75-1.911-2.75
			c-1.001-2.008-1.538-4.211-1.805-6.424c-0.064-0.555-0.113-1.112-0.132-1.672c-0.008-0.282-0.013-0.56,0.002-0.852
			c0.031-0.333,0.097-0.563,0.148-0.849c0.222-1.091,0.486-2.173,0.788-3.244c0.301-1.072,0.638-2.132,1.029-3.176
			c0.391-1.068,0.929-2.049,1.546-2.993c2.492-3.766,6.512-6.351,10.854-7.39l-0.019,0.005c1.325-0.45,2.627-1.068,3.636-2.048
			c0.5-0.488,0.915-1.07,1.174-1.722c0.256-0.649,0.373-1.372,0.261-2.065l-0.009-0.05L-269.832-463.346z M-269.809-463.273
			c0.124,0.692,0.03,1.408-0.206,2.068c-0.245,0.678-0.654,1.292-1.154,1.812c-1.008,1.044-2.326,1.721-3.673,2.198l-0.004,0.001
			l-0.015,0.004c-2.117,0.529-4.142,1.492-5.943,2.726c-1.808,1.231-3.387,2.8-4.578,4.629c-0.586,0.911-1.112,1.891-1.474,2.907
			c-0.372,1.034-0.712,2.082-1.019,3.14c-0.305,1.059-0.573,2.127-0.799,3.205c-0.049,0.257-0.126,0.565-0.145,0.783
			c-0.016,0.261-0.013,0.538-0.007,0.809c0.013,0.546,0.046,1.094,0.1,1.639c0.221,2.179,0.709,4.354,1.648,6.337
			c0.472,0.987,1.064,1.919,1.81,2.719c0.37,0.406,0.786,0.752,1.227,1.091c0.434,0.342,0.873,0.678,1.319,1.002
			c1.776,1.308,3.711,2.415,5.801,3.125c2.083,0.725,4.283,1.088,6.484,1.147c2.201,0.051,4.42-0.09,6.557-0.591
			c2.137-0.496,4.175-1.383,5.989-2.606c0.901-0.611,1.778-1.294,2.547-2.05c0.767-0.763,1.413-1.644,1.941-2.591
			c1.056-1.901,1.645-4.043,1.918-6.207c0.135-1.084,0.193-2.18,0.168-3.271c-0.035-1.072-0.206-2.162-0.439-3.228
			c-0.484-2.128-1.197-4.235-2.275-6.119c-0.137-0.227-0.281-0.476-0.432-0.669c-0.164-0.217-0.334-0.431-0.507-0.642
			c-0.35-0.421-0.707-0.838-1.078-1.24c-0.743-0.806-1.533-1.569-2.373-2.272c-1.678-1.397-3.57-2.588-5.674-3.174l-0.184-0.05
			l0.048-0.183c0.178-0.688,0.31-1.402,0.375-2.111c0.06-0.706,0.072-1.439-0.149-2.086l0.271,0.039
			c-0.422,0.538-0.873,1.04-1.366,1.508c-0.248,0.233-0.508,0.456-0.788,0.656c-0.281,0.195-0.582,0.379-0.93,0.476l-0.19,0.053
			l0.039-0.196c0.095-0.481,0.089-1.004,0.003-1.5c-0.087-0.499-0.265-0.982-0.531-1.416
			C-268.019-462.262-268.877-462.879-269.809-463.273"/>
	</g>
	<g id="g84" transform="translate(304.4717,423.3247)">
		<path id="path86" fill="#B8D5FF" d="M-270.031-400.561c0,0,1.31-4.488,6.171-4.955c0,0,5.61-0.544,7.948,5.702
			c0.932,2.492,2.676,7.944-2.338,10.38c0,0-4.052,1.645-7.666-0.935c-0.498-0.355-1.855-1.594-1.855-1.594
			c-2.438-1.87-4.674-0.094-4.674-0.094s-1.404,1.119-2.058,1.496c-3.845,2.223-5.812,1.47-7.667,0.935
			c-5.36-1.547-2.337-10.38-2.337-10.38c2.524-6.172,7.947-5.702,7.947-5.702C-271.697-405.241-270.031-400.561-270.031-400.561"/>
	</g>
	<g id="g88" transform="translate(282.0205,414.2148)">
		<path id="path90" fill="#FFFFFF" d="M-260.174-386.34c0,2.641,1.798,4.782,4.015,4.782c2.218,0,4.015-2.141,4.015-4.782
			c0-2.641-1.797-4.782-4.015-4.782C-258.376-391.123-260.174-388.981-260.174-386.34"/>
	</g>
	<g id="g92" transform="translate(283.6045,412.2153)">
		<path id="path94" fill="#301103" d="M-260.869-383.22c0,2.113,1.403,3.826,3.134,3.826s3.135-1.713,3.135-3.826
			c0-2.113-1.404-3.826-3.135-3.826S-260.869-385.333-260.869-383.22"/>
	</g>
	<g id="g96" transform="translate(294.3335,406.9561)">
		<path id="path98" fill="#B8D5FF" d="M-265.58-375.01c0,0-5.236,5.866,1.87,6.708c0,0,5.049,0.804,9.35,0
			c1.799-0.337,4.302-4.241-1.215-7.777C-255.575-376.08-261.092-379.473-265.58-375.01"/>
	</g>
	<g id="g100" transform="translate(288.9023,416.623)">
		<path id="path102" fill="#FFFFFF" d="M-263.195-390.1c0,0.998,0.776,1.808,1.734,1.808c0.958,0,1.734-0.81,1.734-1.808
			c0-0.999-0.776-1.808-1.734-1.808C-262.419-391.907-263.195-391.098-263.195-390.1"/>
	</g>
	<g id="g104" transform="translate(301.8599,407.0781)">
		<path id="path106" fill="#301103" d="M-268.884-375.2c0,0.491,0.625,0.89,1.396,0.89s1.395-0.399,1.395-0.89
			c0-0.492-0.624-0.89-1.395-0.89S-268.884-375.692-268.884-375.2"/>
	</g>
	<g id="g108" transform="translate(295.312,399.7119)">
		<path id="path110" fill="#1E0902" d="M-266.009-363.702c0.333-0.254,0.645-0.527,0.926-0.811c0.142-0.144,0.233-0.325,0.39-0.435
			c0.156-0.116,0.312-0.22,0.541-0.331l0.05,0.025c0.042,0.26-0.052,0.493-0.176,0.684c-0.125,0.197-0.342,0.293-0.525,0.408
			c-0.373,0.229-0.77,0.398-1.182,0.511L-266.009-363.702z"/>
	</g>
	<g id="g112" transform="translate(313.0205,414.2148)">
		<path id="path114" fill="#FFFFFF" d="M-273.784-386.34c0,2.641,1.798,4.782,4.015,4.782c2.218,0,4.015-2.141,4.015-4.782
			c0-2.641-1.797-4.782-4.015-4.782C-271.986-391.123-273.784-388.981-273.784-386.34"/>
	</g>
	<g id="g116" transform="translate(289.2324,411.8628)">
		<path id="path118" fill="#FFFFFF" d="M-263.34-382.669c-0.251-0.069-0.569,0.001-0.788,0.176c-0.022,0.017-0.041,0.039-0.06,0.058
			c-0.02,0.02-0.042,0.038-0.058,0.059c-0.175,0.219-0.246,0.537-0.177,0.789c0.133,0.483,0.581,0.652,1.036,0.587
			c0.013-0.002,0.027-0.004,0.041-0.006c0.254-0.036,0.552-0.333,0.588-0.587c0.002-0.014,0.004-0.027,0.005-0.042
			C-262.688-382.088-262.856-382.536-263.34-382.669"/>
	</g>
	<g id="g120" transform="translate(305.25,408.083)">
		<path id="path122" fill="#FFFFFF" d="M-270.373-376.769c-0.361,0-0.361,0.561,0,0.561
			C-270.01-376.208-270.01-376.769-270.373-376.769"/>
	</g>
	<g id="g124" transform="translate(314.0205,412.4131)">
		<path id="path126" fill="#301103" d="M-274.223-383.528c0,2.113,1.404,3.826,3.136,3.826c1.73,0,3.134-1.713,3.134-3.826
			s-1.403-3.826-3.134-3.826C-272.819-387.354-274.223-385.642-274.223-383.528"/>
	</g>
	<g id="g128" transform="translate(320.2695,416.8208)">
		<path id="path130" fill="#FFFFFF" d="M-276.966-390.409c0,0.998,0.776,1.808,1.734,1.808s1.734-0.81,1.734-1.808
			s-0.776-1.807-1.734-1.807S-276.966-391.407-276.966-390.409"/>
	</g>
	<g id="g132" transform="translate(319.2324,411.8628)">
		<path id="path134" fill="#FFFFFF" d="M-276.511-382.669c-0.25-0.069-0.569,0.001-0.787,0.176c-0.022,0.017-0.04,0.039-0.06,0.058
			s-0.041,0.038-0.058,0.059c-0.176,0.219-0.246,0.537-0.178,0.789c0.134,0.483,0.581,0.652,1.035,0.587
			c0.015-0.002,0.028-0.004,0.041-0.006c0.254-0.036,0.553-0.333,0.588-0.587c0.003-0.014,0.004-0.027,0.006-0.042
			C-275.858-382.088-276.028-382.536-276.511-382.669"/>
	</g>
	<g id="g136" transform="translate(284,384.0537)">
		<path id="path138" fill="#FFF4C5" stroke="#230A03" stroke-miterlimit="10" d="M-261.043-339.259
			c0.627-0.83,1.669-1.88,3.362-2.838c2.52-1.426,5.239-3.21,5.239-3.21l0.281-1.776l0.147-0.446l1.673,0.476l0.321,0.438
			c4.263,0,4.213,0.214,4.497,1.345c0.747,2.98-5.324,2.571-5.324,2.571s-2.398,4.064-3.588,5.06
			c-4.815,4.026-5.964,4.044-7.783,3.021c-3.49-1.965-2.683-5.535-0.502-7.971c0.994-1.109,2.407-2.453,2.407-2.453"/>
	</g>
	<g id="g140" transform="translate(297.8301,401.3286)">
		<path id="path142" fill="#1E0802" d="M-267.115-366.226c0.053,0.055,0.119,0.108,0.16,0.165c0.042,0.057,0.089,0.112,0.143,0.167
			l-0.054-0.128c0.397,0.461,0.963,0.858,1.551,1.11c0.597,0.249,1.249,0.368,1.907,0.341c1.327-0.046,2.62-0.604,3.805-1.306
			l0.033,0.046c-1.064,0.879-2.35,1.602-3.806,1.746c-0.721,0.067-1.474-0.02-2.156-0.301c-0.688-0.279-1.295-0.695-1.781-1.3
			l-0.073-0.091l0.02-0.037c0.036-0.067,0.065-0.134,0.09-0.2c0.022-0.066,0.071-0.136,0.106-0.203L-267.115-366.226z"/>
	</g>
	<g id="g144" transform="translate(282.7808,364.8594)">
		<path id="path146" fill="#FFF4C5" d="M-260.508-309.297c0.999,3.632,2.34,4.103,2.512,5.438c0.097,0.764-1.11,1.661-1.08,2.431
			c0.015,0.37,0.595,0.94,0.841,1.215c0.886,0.99,9.399,0.374,9.399,0.374c2.48-0.374,0.035-3.271,0.035-3.271
			c-1.227-1.478-5.227,0.185-5.227,0.185c1.985-0.401,4-1.662,4.906-3.084c5.659-8.882-2.666-10.048-2.666-10.048
			c-3.458,0.281-5.124,3.597-5.124,3.597"/>
	</g>
	<g id="g148" transform="translate(282.7808,364.8594)">
		<path id="path150" fill="#230A03" d="M-260.508-309.297c0.238,0.787,0.53,1.557,0.897,2.288c0.36,0.74,0.845,1.391,1.31,2.082
			c0.223,0.354,0.42,0.743,0.432,1.211c-0.043,0.481-0.318,0.828-0.537,1.171c-0.222,0.338-0.473,0.685-0.509,1.026
			c-0.009,0.087,0.005,0.153,0.038,0.224c0.034,0.078,0.083,0.158,0.138,0.237c0.111,0.156,0.243,0.307,0.38,0.455
			c0.144,0.142,0.278,0.33,0.404,0.371c0.157,0.077,0.352,0.125,0.543,0.166c0.389,0.076,0.793,0.115,1.199,0.143
			c0.811,0.053,1.63,0.057,2.448,0.046c1.637-0.027,3.278-0.096,4.911-0.213l-0.019,0.002c0.362-0.055,0.705-0.195,0.821-0.447
			c0.129-0.249,0.062-0.626-0.073-0.968c-0.136-0.349-0.335-0.686-0.555-1.006c-0.109-0.156-0.233-0.324-0.348-0.456
			c-0.108-0.123-0.245-0.218-0.4-0.29c-0.643-0.282-1.465-0.212-2.225-0.077c-0.769,0.147-1.543,0.372-2.271,0.658l-0.159-0.521
			c1.485-0.307,2.918-1.031,4.019-2.075c0.271-0.265,0.52-0.551,0.721-0.861c0.208-0.329,0.414-0.662,0.601-1.001
			c0.381-0.677,0.716-1.38,0.963-2.108c0.247-0.728,0.418-1.483,0.412-2.24c0-0.756-0.198-1.506-0.605-2.14
			c-0.822-1.28-2.343-2.008-3.833-2.308l0.028,0.001c-1.061,0.065-2.097,0.454-2.97,1.082c-0.871,0.629-1.615,1.447-2.165,2.383
			c0.5-0.964,1.211-1.825,2.081-2.497c0.866-0.674,1.924-1.121,3.032-1.229l0.015-0.001l0.015,0.002
			c0.805,0.123,1.567,0.386,2.284,0.764c0.711,0.38,1.367,0.908,1.827,1.599c0.464,0.685,0.702,1.516,0.72,2.336
			c0.022,0.822-0.136,1.635-0.389,2.4c-0.255,0.768-0.597,1.497-0.982,2.196c-0.192,0.354-0.399,0.694-0.61,1.033
			c-0.226,0.353-0.495,0.666-0.786,0.956c-1.183,1.135-2.671,1.899-4.268,2.245l-0.159-0.521c0.777-0.309,1.558-0.553,2.381-0.701
			c0.814-0.128,1.691-0.236,2.554,0.137c0.209,0.1,0.412,0.24,0.57,0.423c0.149,0.175,0.264,0.336,0.385,0.511
			c0.235,0.348,0.449,0.712,0.605,1.12c0.144,0.397,0.28,0.89,0.043,1.386c-0.12,0.24-0.334,0.418-0.549,0.521
			c-0.216,0.105-0.438,0.158-0.654,0.192l-0.011,0.001l-0.01,0.001c-1.648,0.101-3.293,0.175-4.945,0.165
			c-0.826-0.008-1.653-0.03-2.481-0.103c-0.414-0.037-0.829-0.086-1.246-0.177c-0.208-0.051-0.416-0.103-0.627-0.211
			c-0.054-0.028-0.102-0.056-0.165-0.105c-0.034-0.025-0.045-0.04-0.065-0.059l-0.06-0.065l-0.207-0.229
			c-0.138-0.157-0.275-0.318-0.398-0.5c-0.061-0.092-0.118-0.188-0.164-0.3c-0.051-0.117-0.07-0.26-0.053-0.377
			c0.073-0.487,0.359-0.818,0.585-1.158c0.227-0.333,0.489-0.669,0.527-1.022c0.005-0.361-0.155-0.751-0.358-1.092
			c-0.427-0.688-0.904-1.382-1.238-2.138C-260.061-307.71-260.307-308.5-260.508-309.297"/>
	</g>
	<g id="g152" transform="translate(322.4346,376.5889)">
		<path id="path154" fill="#FFF4C5" d="M-277.917-327.607c2.748,4.163,1.259,7.798-1.321,11.109l-0.793,1.188
			c0,0,3.1-1.87,5.617,1.776c0,0,0.918,3.179-3.378,2.15l-7.092-0.562c0,0-2.483-0.467-0.52-2.43"/>
	</g>
	<g id="g156" transform="translate(322.4346,376.5889)">
		<path id="path158" fill="#2D0C03" d="M-277.917-327.607c0.59,0.819,1.065,1.733,1.343,2.72c0.283,0.982,0.348,2.037,0.181,3.055
			c-0.159,1.021-0.52,1.999-0.985,2.914c-0.462,0.917-1.044,1.766-1.665,2.572l0.011-0.015l-0.785,1.193l-0.345-0.36
			c0.531-0.293,1.078-0.446,1.658-0.508c0.575-0.057,1.168,0.01,1.717,0.201c1.116,0.378,1.972,1.231,2.596,2.149l0.027,0.042
			l0.009,0.036c0.113,0.476,0.132,0.941-0.013,1.421c-0.137,0.48-0.536,0.897-0.995,1.069c-0.456,0.183-0.927,0.202-1.373,0.179
			c-0.449-0.026-0.884-0.108-1.311-0.211l0.036,0.006l-3.541-0.336c-1.181-0.117-2.361-0.221-3.54-0.353l-0.011-0.001l-0.002-0.001
			c-0.291-0.072-0.561-0.182-0.808-0.349c-0.243-0.162-0.463-0.416-0.497-0.727c-0.037-0.307,0.088-0.592,0.244-0.828
			c0.16-0.238,0.355-0.444,0.562-0.637c-0.191,0.208-0.369,0.429-0.504,0.672c-0.132,0.241-0.23,0.515-0.181,0.775
			c0.045,0.26,0.24,0.463,0.469,0.598c0.229,0.138,0.497,0.227,0.757,0.275l-0.013-0.002c1.186,0.055,2.367,0.139,3.552,0.209
			l3.55,0.225l0.016,0.002l0.021,0.005c0.407,0.093,0.818,0.165,1.226,0.184c0.404,0.019,0.811-0.012,1.153-0.155
			c0.342-0.141,0.587-0.405,0.689-0.755c0.105-0.342,0.086-0.765-0.004-1.116l0.036,0.077c-0.597-0.856-1.38-1.595-2.333-1.938
			c-0.474-0.17-0.983-0.234-1.489-0.19c-0.499,0.042-1.019,0.19-1.44,0.418l-0.924,0.498l0.579-0.858l0.799-1.184l0.006-0.01
			l0.005-0.006c0.617-0.785,1.187-1.605,1.672-2.473c0.48-0.867,0.856-1.795,1.043-2.767c0.186-0.97,0.174-1.979-0.041-2.951
			C-276.976-325.816-277.396-326.743-277.917-327.607"/>
	</g>
	<g id="g160" transform="translate(316.2568,390.333)">
		<path id="path162" fill="#FFF4C5" d="M-275.205-349.061c0,0,1.908,5.289,2.975,7.012c0,0-6.104,2.806-6.435,4.208
			c0,0-0.798,2.897,0.324,3.739c0,0,2.333,2.447,3.697-2.992c0,0,6.962-0.759,7.336-3.652c-0.332-3.243-1.142-4.139-1.996-6.618
			c-0.509-1.477-1.916-3.063-3.143-2.708C-272.446-350.073-274.245-349.287-275.205-349.061"/>
	</g>
	<g id="g164" transform="translate(316.2451,390.3818)">
		<path id="path166" fill="#2D0C03" d="M-275.199-349.138c0.935-0.282,1.822-0.708,2.709-1.11l0.005-0.003l0.013-0.003
			c0.517-0.168,1.07,0.003,1.491,0.267c0.431,0.267,0.794,0.619,1.096,1.012c0.303,0.395,0.555,0.821,0.747,1.288
			c0.175,0.459,0.333,0.887,0.521,1.325c0.372,0.866,0.777,1.743,1.062,2.681c0.29,0.934,0.454,1.897,0.556,2.856l0.004,0.034
			l-0.005,0.034c-0.113,0.857-0.729,1.486-1.337,1.91c-0.626,0.434-1.31,0.731-2.001,0.979c-0.692,0.246-1.402,0.425-2.114,0.574
			c-0.715,0.15-1.429,0.264-2.159,0.332l0.157-0.137c-0.136,0.485-0.291,0.966-0.484,1.435c-0.194,0.466-0.422,0.925-0.74,1.332
			c-0.312,0.396-0.747,0.773-1.297,0.819c-0.545,0.043-1.043-0.221-1.413-0.581l0.01,0.01c-0.431-0.33-0.573-0.873-0.626-1.358
			c-0.056-0.5-0.016-0.996,0.037-1.487c0.029-0.246,0.067-0.49,0.115-0.733c0.028-0.13,0.04-0.227,0.091-0.378
			c0.052-0.136,0.124-0.25,0.202-0.356c0.32-0.415,0.713-0.726,1.106-1.028c0.792-0.601,1.643-1.098,2.502-1.572
			c0.857-0.481,1.742-0.9,2.637-1.311l-0.101,0.332c-0.335-0.567-0.597-1.149-0.855-1.735c-0.253-0.587-0.481-1.183-0.709-1.777
			c-0.453-1.189-0.864-2.396-1.239-3.612l-0.009-0.027L-275.199-349.138z M-275.155-349.092l1.484,3.477
			c0.253,0.582,0.518,1.159,0.785,1.73s0.541,1.145,0.863,1.666l0.137,0.22l-0.236,0.112c-0.875,0.415-1.736,0.875-2.598,1.32
			c-0.854,0.459-1.701,0.936-2.502,1.466c-0.396,0.27-0.79,0.557-1.086,0.902c-0.157,0.174-0.213,0.347-0.271,0.597
			c-0.06,0.234-0.109,0.471-0.15,0.707c-0.083,0.475-0.116,0.959-0.078,1.433c0.04,0.467,0.169,0.96,0.529,1.244l0.004,0.004
			l0.006,0.005c0.34,0.322,0.812,0.555,1.273,0.506c0.466-0.047,0.86-0.375,1.134-0.766c0.28-0.392,0.482-0.843,0.65-1.301
			c0.167-0.46,0.293-0.938,0.402-1.417l0.026-0.116l0.131-0.021c1.403-0.221,2.812-0.536,4.135-1.03
			c0.659-0.249,1.302-0.548,1.855-0.947c0.548-0.395,1.002-0.924,1.07-1.531l-0.001,0.067c-0.093-0.936-0.244-1.86-0.513-2.751
			c-0.262-0.892-0.662-1.749-1.001-2.65c-0.174-0.442-0.331-0.915-0.48-1.351c-0.157-0.421-0.379-0.831-0.645-1.202
			c-0.267-0.368-0.576-0.714-0.945-0.968c-0.362-0.255-0.804-0.41-1.22-0.3l0.018-0.006c-0.458,0.186-0.921,0.349-1.388,0.506
			C-274.222-349.336-274.682-349.191-275.155-349.092"/>
	</g>
</g>
</svg>
