<?xml version="1.0" encoding="utf-8"?>
<!-- Generator: Adobe Illustrator 16.0.4, SVG Export Plug-In . SVG Version: 6.00 Build 0)  -->
<!DOCTYPE svg PUBLIC "-//W3C//DTD SVG 1.1//EN" "http://www.w3.org/Graphics/SVG/1.1/DTD/svg11.dtd">
<svg version="1.1" id="Layer_1" xmlns="http://www.w3.org/2000/svg" xmlns:xlink="http://www.w3.org/1999/xlink" x="0px" y="0px"
	 width="427.016px" height="427.018px" viewBox="0 0 427.016 427.018" enable-background="new 0 0 427.016 427.018"
	 xml:space="preserve">
<path fill="#CCCCCC" d="M54.513,336.164c0,20.078,16.262,36.341,36.34,36.341h9.086v31.801c0,12.537,10.177,22.712,22.713,22.712
	c12.538,0,22.713-10.175,22.713-22.712v-31.801h45.429v31.801c0,12.537,10.177,22.712,22.713,22.712
	c12.537,0,22.715-10.175,22.715-22.712v-31.801h45.427v31.801c0,12.537,10.176,22.712,22.711,22.712
	c12.541,0,22.717-10.175,22.717-22.712v-31.801h9.086c20.078,0,36.341-16.263,36.341-36.341v-9.086h31.802
	c12.536,0,22.711-10.176,22.711-22.717c0-12.535-10.175-22.711-22.711-22.711h-31.802v-45.427h31.802
	c12.536,0,22.711-10.179,22.711-22.715s-10.175-22.713-22.711-22.713h-31.802v-45.429h31.802c12.536,0,22.711-10.175,22.711-22.713
	c0-12.536-10.175-22.713-22.711-22.713h-31.802v-9.086c0-20.079-16.263-36.34-36.341-36.34h-9.086v-31.8
	C327.076,10.177,316.9,0,304.359,0c-12.535,0-22.711,10.177-22.711,22.715v31.8h-45.427v-31.8C236.222,10.177,226.044,0,213.507,0
	c-12.536,0-22.713,10.177-22.713,22.715v31.8h-45.429v-31.8C145.365,10.177,135.19,0,122.652,0
	c-12.536,0-22.713,10.177-22.713,22.715v31.8h-9.086c-20.079,0-36.34,16.261-36.34,36.34v9.086h-31.8
	C10.175,99.941,0,110.118,0,122.654c0,12.539,10.175,22.713,22.713,22.713h31.8v45.429h-31.8C10.175,190.796,0,200.973,0,213.509
	c0,12.537,10.175,22.715,22.713,22.715h31.8v45.427h-31.8C10.175,281.65,0,291.826,0,304.361c0,12.541,10.175,22.717,22.713,22.717
	h31.8V336.164z M281.65,165.359v96.3c0,11.081-8.912,19.991-19.992,19.991h-96.3c-11.083,0-19.991-8.91-19.991-19.991v-96.3
	c0-11.086,8.909-19.991,19.991-19.991h96.3C272.738,145.368,281.65,154.273,281.65,165.359z"/>
</svg>
