<?xml version="1.0" encoding="UTF-8" standalone="no"?>
<svg width="256px" height="256px" viewBox="0 0 256 256" version="1.1" xmlns="http://www.w3.org/2000/svg" xmlns:xlink="http://www.w3.org/1999/xlink">
    <!-- Generator: Sketch 3.7.2 (28276) - http://www.bohemiancoding.com/sketch -->
    <title>qemu-x86-64</title>
    <desc>Created with Sketch.</desc>
    <defs>
        <radialGradient cx="43.6063955%" cy="38.4300342%" fx="43.6063955%" fy="38.4300342%" r="50.0000022%" id="radialGradient-1">
            <stop stop-color="#000000" offset="0%"></stop>
            <stop stop-color="#000000" stop-opacity="0.8974359" offset="100%"></stop>
        </radialGradient>
        <linearGradient x1="50.4504606%" y1="-0.253785478%" x2="50.4504606%" y2="95.8887077%" id="linearGradient-2">
            <stop stop-color="#FFFFFF" offset="0%"></stop>
            <stop stop-color="#FFFFFF" stop-opacity="0" offset="100%"></stop>
        </linearGradient>
    </defs>
    <g id="Page-1" stroke="none" stroke-width="1" fill="none" fill-rule="evenodd">
        <g id="qemu-x86-64">
            <g id="Qemu_logo" transform="translate(30.000000, 3.000000)">
                <g id="svg2">
                    <g id="layer1" transform="translate(0.427619, 0.277276)">
                        <path d="M110.761381,0.823797081 C49.9766792,0.823797081 0.672071895,49.8471908 0.672071895,110.345915 C0.672071895,170.844645 49.9766792,219.868019 110.761381,219.868019 C130.651265,219.868019 149.27294,214.639539 165.375042,205.453971 L171.101164,219.868019 L175.842147,219.868019 L215.24772,219.868019 L215.494005,219.868019 L198.130924,176.933888 C212.347214,158.47957 220.789129,135.397067 220.789129,110.345915 C220.789129,49.8471908 171.546093,0.823797081 110.761381,0.823797081 L110.761381,0.823797081 Z" id="path3834-7-7-2-5-5-0-5-4" fill="url(#radialGradient-1)"></path>
                        <path d="M182.22658,67.1467252 C182.22658,101.808632 149.586645,129.90764 109.323242,129.90764 C69.0598388,129.90764 36.4199042,101.808632 36.4199042,67.1467252 C36.4199042,32.4848438 69.0598388,4.38581041 109.323242,4.38581041 C149.586645,4.38581041 182.22658,32.4848438 182.22658,67.1467252 L182.22658,67.1467252 Z" id="path3661" fill="url(#linearGradient-2)"></path>
                        <path d="M133.778934,46.0217903 C133.778934,53.1697782 127.986906,58.9643535 120.842104,58.9643535 C113.697283,58.9643535 107.905274,53.1697782 107.905274,46.0217903 C107.905274,38.8738024 113.697283,33.079227 120.842104,33.079227 C127.986906,33.079227 133.778934,38.8738024 133.778934,46.0217903 L133.778934,46.0217903 Z" id="path4442" fill="#000000"></path>
                        <rect id="rect4444" fill="#000000" transform="translate(132.908114, 62.822252) rotate(8.210921) translate(-132.908114, -62.822252) " x="95.8239158" y="57.4010846" width="74.1683969" height="10.8423343"></rect>
                        <rect id="rect4446" fill="#000000" x="163.384391" y="66.1823942" width="12.9368326" height="5.72459669"></rect>
                        <path d="M81.5458332,18.8622215 C81.4335273,23.1697993 73.9292187,19.4199786 73.6031572,24.3444875 C65.2809564,20.6376971 74.2510637,30.0053991 73.4185421,30.873928 L73.3570694,30.873928 L72.7413574,30.812428 C72.3396964,30.6689282 71.7566712,30.42009 70.8942211,29.8884506 C65.0820962,34.5211502 64.9408863,44.1471519 58.9494069,49.476772 C55.0193512,57.9626595 54.063569,67.1843583 51.1914348,76.0257233 C49.7768535,84.5074319 48.5339032,92.9734049 50.6372939,101.465896 C51.2688273,108.368061 49.2793976,117.744949 55.5629905,122.594179 C64.8770493,130.248241 72.6172298,139.931307 80.4377484,149.143131 C92.6911871,164.229006 103.548092,180.410546 113.13206,197.313154 C113.771041,193.139121 115.318163,205.719308 118.119327,206.552928 C117.150719,200.2604 115.888716,190.264748 115.287052,182.529515 C112.171253,162.244589 102.17869,143.798293 98.416541,123.702952 C98.3008857,122.854628 98.164168,121.984049 98.0471138,121.115816 L98.0471138,118.590277 L97.7392577,118.590277 C96.5068287,108.649818 96.0637328,97.9612666 103.280666,90.1933712 C110.648878,82.7579953 121.61673,80.8847111 130.49514,75.7177308 C132.469241,74.5524056 134.532655,73.6051685 136.652261,72.9457985 C136.669993,72.9398851 136.697183,72.951712 136.713734,72.9457985 C142.855112,71.0467711 149.419312,71.1062605 155.800808,72.1450181 C155.895184,72.1607873 156.014406,72.1909459 156.108664,72.206518 C156.689009,72.3036958 157.318198,72.4016621 157.894229,72.5145105 C162.566469,72.931074 171.971141,74.7554539 173.656458,71.5289346 C167.209214,66.0366945 157.923271,66.4194922 150.074686,64.2603122 C148.832248,64.0342408 147.293007,63.7864276 145.764701,63.6443273 L138.0683,61.9195694 L136.159593,61.4267814 L136.159593,61.4882814 L108.637263,56.1292123 C108.199625,55.7305271 107.722384,55.3223607 107.282696,55.0204394 L134.127743,58.3467581 L134.127743,58.2235611 C135.073693,58.4344547 136.010856,58.6051959 136.960018,58.7163491 L136.960018,58.777849 L155.92395,62.2889632 C159.196642,63.5101312 162.686341,64.4251793 165.960057,64.6297061 C171.363802,65.4163336 178.225554,73.4819913 179.998292,73.8694803 C179.129478,65.3797293 170.654837,61.5776534 163.620351,59.0858415 C155.401925,55.0882865 143.124922,55.2338757 141.824144,44.1790058 C141.478163,43.4087585 141.136477,42.6391814 140.715862,41.8998614 L137.514159,37.6495653 L137.637302,37.5880654 C133.268721,32.4297384 127.115797,28.6745956 120.582077,27.2395182 C114.097102,25.0000729 106.814302,22.7707199 99.9557227,21.8804492 C97.6281931,28.7366278 95.0239182,16.4487235 89.4270462,20.0940928 C84.5211312,20.6753461 85.1985524,21.9717332 81.5459317,18.8621229 L81.5458332,18.8622215 Z M116.826135,38.8817323 C118.60307,38.8348189 120.63423,39.1617936 122.6754,39.8673082 C128.118472,41.7487135 131.662845,45.7122268 130.618085,48.7374915 C129.573326,51.7627562 124.301057,52.6516471 118.857985,50.7702418 C113.414913,48.8888365 109.870559,44.9869218 110.915299,41.9616571 C111.568269,40.0708691 113.864589,38.9599673 116.826135,38.8817323 L116.826135,38.8817323 Z" id="path3499-9-7" fill="#FF6600"></path>
                    </g>
                </g>
            </g>
            <path d="M14.8857143,168.996717 C14.8857143,155.743696 25.6397549,145 38.8845606,145 L185.115439,145 C198.369636,145 209.114286,155.735954 209.114286,168.996717 L209.114286,220.003283 C209.114286,233.256304 198.360245,244 185.115439,244 L38.8845606,244 C25.6303638,244 14.8857143,233.264046 14.8857143,220.003283 L14.8857143,168.996717 Z" id="Rectangle-33" fill="#000000"></path>
            <path d="M15,165.99039 L15,165.99039 L15,223.00961 C15,232.942842 23.0627212,241 33.0087054,241 L190.991295,241 C200.938047,241 209,232.944274 209,223.00961 L209,165.99039 C209,156.057158 200.937279,148 190.991295,148 L33.0087054,148 C23.0619534,148 15,156.055726 15,165.99039 L15,165.99039 Z M9,165.99039 C9,152.740864 19.7493978,142 33.0087054,142 L190.991295,142 C204.250936,142 215,152.743398 215,165.99039 L215,223.00961 C215,236.259136 204.250602,247 190.991295,247 L33.0087054,247 C19.7490636,247 9,236.256602 9,223.00961 L9,165.99039 L9,165.99039 Z" id="Rectangle-33-Copy" fill="#FFFFFF"></path>
            <path d="M26.6347656,216 L35.7167969,202.523438 L27.0253906,189.4375 L35.5458984,189.4375 L39.9892578,197.152344 L44.3349609,189.4375 L52.6113281,189.4375 L43.8710938,202.401367 L52.953125,216 L44.2861328,216 L39.6962891,208.016602 L35.0820312,216 L26.6347656,216 Z M66.6774902,207.906738 C67.8518125,209.155117 69.4757383,209.779297 71.5493164,209.779297 C73.6228945,209.779297 75.2468203,209.155117 76.4211426,207.906738 C77.5954649,206.65836 78.1826172,204.902192 78.1826172,202.638184 C78.1826172,200.289539 77.5848855,198.506923 76.3894043,197.290283 C75.1939231,196.073643 73.5805766,195.465332 71.5493164,195.465332 C69.5180563,195.465332 67.9047098,196.073643 66.7092285,197.290283 C65.5137473,198.506923 64.9160156,200.289539 64.9160156,202.638184 C64.9160156,204.902192 65.503168,206.65836 66.6774902,207.906738 L66.6774902,207.906738 Z M57.282959,196.227051 C58.4572813,194.132314 60.176421,192.555995 62.4404297,191.498047 C60.2187389,190.01692 58.7746615,188.414153 58.1081543,186.689697 C57.4416471,184.965242 57.1083984,183.351896 57.1083984,181.849609 C57.1083984,178.506494 58.3673377,175.655367 60.8852539,173.296143 C63.4031701,170.936919 66.9578221,169.757324 71.5493164,169.757324 C76.1408107,169.757324 79.6954627,170.936919 82.2133789,173.296143 C84.7312951,175.655367 85.9902344,178.506494 85.9902344,181.849609 C85.9902344,183.351896 85.6569858,184.965242 84.9904785,186.689697 C84.3239713,188.414153 82.8798939,189.911126 80.6582031,191.180664 C82.9222118,192.450202 84.6254826,194.132314 85.7680664,196.227051 C86.9106502,198.321788 87.4819336,200.659818 87.4819336,203.241211 C87.4819336,207.113301 86.0484356,210.408759 83.1813965,213.127686 C80.3143574,215.846612 76.3100843,217.206055 71.168457,217.206055 C66.0268298,217.206055 62.1336395,215.846612 59.4887695,213.127686 C56.8438995,210.408759 55.5214844,207.113301 55.5214844,203.241211 C55.5214844,200.659818 56.1086367,198.321788 57.282959,196.227051 L57.282959,196.227051 Z M67.2805176,186.959473 C68.3067271,188.017421 69.7296458,188.546387 71.5493164,188.546387 C73.3901459,188.546387 74.8130646,188.017421 75.8181152,186.959473 C76.8231658,185.901525 77.3256836,184.536792 77.3256836,182.865234 C77.3256836,181.045564 76.8231658,179.622645 75.8181152,178.596436 C74.8130646,177.570226 73.3901459,177.057129 71.5493164,177.057129 C69.7296458,177.057129 68.3067271,177.570226 67.2805176,178.596436 C66.254308,179.622645 65.7412109,181.045564 65.7412109,182.865234 C65.7412109,184.536792 66.254308,185.901525 67.2805176,186.959473 L67.2805176,186.959473 Z M103.06543,207.494141 C104.398444,209.059904 106.091136,209.842773 108.143555,209.842773 C110.153656,209.842773 111.735264,209.086352 112.888428,207.573486 C114.041591,206.060621 114.618164,204.098157 114.618164,201.686035 C114.618164,198.998847 113.962246,196.941169 112.650391,195.512939 C111.338535,194.08471 109.730478,193.370605 107.826172,193.370605 C106.281568,193.370605 104.916835,193.836096 103.731934,194.76709 C101.954581,196.142422 101.065918,198.36408 101.065918,201.432129 C101.065918,203.907727 101.732415,205.928378 103.06543,207.494141 L103.06543,207.494141 Z M113.792969,181.563965 C113.792969,180.823401 113.507327,180.008794 112.936035,179.120117 C111.962723,177.681308 110.492197,176.961914 108.524414,176.961914 C105.583319,176.961914 103.488613,178.612288 102.240234,181.913086 C101.563148,183.732756 101.097658,186.419904 100.84375,189.974609 C101.965175,188.641595 103.266431,187.668297 104.747559,187.054688 C106.228686,186.441078 107.921377,186.134277 109.825684,186.134277 C113.909363,186.134277 117.257718,187.520168 119.87085,190.291992 C122.483981,193.063816 123.790527,196.607889 123.790527,200.924316 C123.790527,205.219585 122.510429,209.006982 119.950195,212.286621 C117.389961,215.56626 113.412136,217.206055 108.016602,217.206055 C102.219047,217.206055 97.9450007,214.78339 95.1943359,209.937988 C93.057281,206.150534 91.9887695,201.262888 91.9887695,195.274902 C91.9887695,191.762515 92.13688,188.906098 92.4331055,186.705566 C92.9620795,182.791159 93.9882736,179.532728 95.5117188,176.930176 C96.8235743,174.708485 98.542714,172.92058 100.669189,171.566406 C102.795665,170.212233 105.339992,169.535156 108.302246,169.535156 C112.576356,169.535156 115.982897,170.630116 118.521973,172.820068 C121.061048,175.010021 122.489256,177.924624 122.806641,181.563965 L113.792969,181.563965 Z M127.208984,199.453125 L140.662109,199.453125 L140.662109,205.78125 L127.208984,205.78125 L127.208984,199.453125 Z M151.771484,209.71875 C152.755864,210.875006 154.005852,211.453125 155.521484,211.453125 C157.005867,211.453125 158.173824,210.894537 159.025391,209.777344 C159.876957,208.660151 160.302734,207.210946 160.302734,205.429688 C160.302734,203.445303 159.818364,201.925787 158.849609,200.871094 C157.880855,199.816401 156.693366,199.289062 155.287109,199.289062 C154.146479,199.289062 153.138676,199.632809 152.263672,200.320312 C150.951165,201.335943 150.294922,202.976551 150.294922,205.242188 C150.294922,207.070322 150.787104,208.562494 151.771484,209.71875 L151.771484,209.71875 Z M159.693359,190.570312 C159.693359,190.023435 159.482424,189.421878 159.060547,188.765625 C158.341793,187.70312 157.255867,187.171875 155.802734,187.171875 C153.630849,187.171875 152.083989,188.390613 151.162109,190.828125 C150.662107,192.171882 150.31836,194.156237 150.130859,196.78125 C150.958989,195.79687 151.919916,195.078127 153.013672,194.625 C154.107427,194.171873 155.357415,193.945312 156.763672,193.945312 C159.779312,193.945312 162.251943,194.96874 164.181641,197.015625 C166.111338,199.06251 167.076172,201.679672 167.076172,204.867188 C167.076172,208.039078 166.130869,210.835925 164.240234,213.257812 C162.3496,215.6797 159.412129,216.890625 155.427734,216.890625 C151.146463,216.890625 147.990245,215.10158 145.958984,211.523438 C144.380851,208.726549 143.591797,205.11721 143.591797,200.695312 C143.591797,198.10155 143.701171,195.992196 143.919922,194.367188 C144.310549,191.476548 145.068354,189.070322 146.193359,187.148438 C147.162114,185.507804 148.431633,184.187505 150.001953,183.1875 C151.572273,182.187495 153.451161,181.6875 155.638672,181.6875 C158.794938,181.6875 161.310538,182.496086 163.185547,184.113281 C165.060556,185.730477 166.115233,187.882799 166.349609,190.570312 L159.693359,190.570312 Z M193.888672,208.6875 L190.044922,208.6875 L190.044922,216 L183.505859,216 L183.505859,208.6875 L170.052734,208.6875 L170.052734,202.851562 L182.544922,182.226562 L190.044922,182.226562 L190.044922,203.460938 L193.888672,203.460938 L193.888672,208.6875 Z M183.505859,203.460938 L183.505859,188.789062 L174.998047,203.460938 L183.505859,203.460938 Z" id="x86-64" fill="#FFFFFF"></path>
        </g>
    </g>
</svg>