<?xml version="1.0" encoding="UTF-8" standalone="no"?>
<svg width="256px" height="256px" viewBox="0 0 256 256" version="1.1" xmlns="http://www.w3.org/2000/svg" xmlns:xlink="http://www.w3.org/1999/xlink">
    <!-- Generator: Sketch 3.7.2 (28276) - http://www.bohemiancoding.com/sketch -->
    <title>qemu-x86</title>
    <desc>Created with Sketch.</desc>
    <defs>
        <radialGradient cx="43.6063955%" cy="38.4300342%" fx="43.6063955%" fy="38.4300342%" r="50.0000022%" id="radialGradient-1">
            <stop stop-color="#000000" offset="0%"></stop>
            <stop stop-color="#000000" stop-opacity="0.8974359" offset="100%"></stop>
        </radialGradient>
        <linearGradient x1="50.4504606%" y1="-0.253785478%" x2="50.4504606%" y2="95.8887077%" id="linearGradient-2">
            <stop stop-color="#FFFFFF" offset="0%"></stop>
            <stop stop-color="#FFFFFF" stop-opacity="0" offset="100%"></stop>
        </linearGradient>
    </defs>
    <g id="Page-1" stroke="none" stroke-width="1" fill="none" fill-rule="evenodd">
        <g id="qemu-x86">
            <g id="Qemu_logo" transform="translate(30.000000, 3.000000)">
                <g id="svg2">
                    <g id="layer1" transform="translate(0.427619, 0.277276)">
                        <path d="M110.761381,0.823797081 C49.9766792,0.823797081 0.672071895,49.8471908 0.672071895,110.345915 C0.672071895,170.844645 49.9766792,219.868019 110.761381,219.868019 C130.651265,219.868019 149.27294,214.639539 165.375042,205.453971 L171.101164,219.868019 L175.842147,219.868019 L215.24772,219.868019 L215.494005,219.868019 L198.130924,176.933888 C212.347214,158.47957 220.789129,135.397067 220.789129,110.345915 C220.789129,49.8471908 171.546093,0.823797081 110.761381,0.823797081 L110.761381,0.823797081 Z" id="path3834-7-7-2-5-5-0-5-4" fill="url(#radialGradient-1)"></path>
                        <path d="M182.22658,67.1467252 C182.22658,101.808632 149.586645,129.90764 109.323242,129.90764 C69.0598388,129.90764 36.4199042,101.808632 36.4199042,67.1467252 C36.4199042,32.4848438 69.0598388,4.38581041 109.323242,4.38581041 C149.586645,4.38581041 182.22658,32.4848438 182.22658,67.1467252 L182.22658,67.1467252 Z" id="path3661" fill="url(#linearGradient-2)"></path>
                        <path d="M133.778934,46.0217903 C133.778934,53.1697782 127.986906,58.9643535 120.842104,58.9643535 C113.697283,58.9643535 107.905274,53.1697782 107.905274,46.0217903 C107.905274,38.8738024 113.697283,33.079227 120.842104,33.079227 C127.986906,33.079227 133.778934,38.8738024 133.778934,46.0217903 L133.778934,46.0217903 Z" id="path4442" fill="#000000"></path>
                        <rect id="rect4444" fill="#000000" transform="translate(132.908114, 62.822252) rotate(8.210921) translate(-132.908114, -62.822252) " x="95.8239158" y="57.4010846" width="74.1683969" height="10.8423343"></rect>
                        <rect id="rect4446" fill="#000000" x="163.384391" y="66.1823942" width="12.9368326" height="5.72459669"></rect>
                        <path d="M81.5458332,18.8622215 C81.4335273,23.1697993 73.9292187,19.4199786 73.6031572,24.3444875 C65.2809564,20.6376971 74.2510637,30.0053991 73.4185421,30.873928 L73.3570694,30.873928 L72.7413574,30.812428 C72.3396964,30.6689282 71.7566712,30.42009 70.8942211,29.8884506 C65.0820962,34.5211502 64.9408863,44.1471519 58.9494069,49.476772 C55.0193512,57.9626595 54.063569,67.1843583 51.1914348,76.0257233 C49.7768535,84.5074319 48.5339032,92.9734049 50.6372939,101.465896 C51.2688273,108.368061 49.2793976,117.744949 55.5629905,122.594179 C64.8770493,130.248241 72.6172298,139.931307 80.4377484,149.143131 C92.6911871,164.229006 103.548092,180.410546 113.13206,197.313154 C113.771041,193.139121 115.318163,205.719308 118.119327,206.552928 C117.150719,200.2604 115.888716,190.264748 115.287052,182.529515 C112.171253,162.244589 102.17869,143.798293 98.416541,123.702952 C98.3008857,122.854628 98.164168,121.984049 98.0471138,121.115816 L98.0471138,118.590277 L97.7392577,118.590277 C96.5068287,108.649818 96.0637328,97.9612666 103.280666,90.1933712 C110.648878,82.7579953 121.61673,80.8847111 130.49514,75.7177308 C132.469241,74.5524056 134.532655,73.6051685 136.652261,72.9457985 C136.669993,72.9398851 136.697183,72.951712 136.713734,72.9457985 C142.855112,71.0467711 149.419312,71.1062605 155.800808,72.1450181 C155.895184,72.1607873 156.014406,72.1909459 156.108664,72.206518 C156.689009,72.3036958 157.318198,72.4016621 157.894229,72.5145105 C162.566469,72.931074 171.971141,74.7554539 173.656458,71.5289346 C167.209214,66.0366945 157.923271,66.4194922 150.074686,64.2603122 C148.832248,64.0342408 147.293007,63.7864276 145.764701,63.6443273 L138.0683,61.9195694 L136.159593,61.4267814 L136.159593,61.4882814 L108.637263,56.1292123 C108.199625,55.7305271 107.722384,55.3223607 107.282696,55.0204394 L134.127743,58.3467581 L134.127743,58.2235611 C135.073693,58.4344547 136.010856,58.6051959 136.960018,58.7163491 L136.960018,58.777849 L155.92395,62.2889632 C159.196642,63.5101312 162.686341,64.4251793 165.960057,64.6297061 C171.363802,65.4163336 178.225554,73.4819913 179.998292,73.8694803 C179.129478,65.3797293 170.654837,61.5776534 163.620351,59.0858415 C155.401925,55.0882865 143.124922,55.2338757 141.824144,44.1790058 C141.478163,43.4087585 141.136477,42.6391814 140.715862,41.8998614 L137.514159,37.6495653 L137.637302,37.5880654 C133.268721,32.4297384 127.115797,28.6745956 120.582077,27.2395182 C114.097102,25.0000729 106.814302,22.7707199 99.9557227,21.8804492 C97.6281931,28.7366278 95.0239182,16.4487235 89.4270462,20.0940928 C84.5211312,20.6753461 85.1985524,21.9717332 81.5459317,18.8621229 L81.5458332,18.8622215 Z M116.826135,38.8817323 C118.60307,38.8348189 120.63423,39.1617936 122.6754,39.8673082 C128.118472,41.7487135 131.662845,45.7122268 130.618085,48.7374915 C129.573326,51.7627562 124.301057,52.6516471 118.857985,50.7702418 C113.414913,48.8888365 109.870559,44.9869218 110.915299,41.9616571 C111.568269,40.0708691 113.864589,38.9599673 116.826135,38.8817323 L116.826135,38.8817323 Z" id="path3499-9-7" fill="#FF6600"></path>
                    </g>
                </g>
            </g>
            <path d="M11,167.847991 C11,155.229394 21.2093385,145 33.8071738,145 L122.192826,145 C134.78888,145 145,155.231807 145,167.847991 L145,222.152009 C145,234.770606 134.790662,245 122.192826,245 L33.8071738,245 C21.2111195,245 11,234.768193 11,222.152009 L11,167.847991 L11,167.847991 Z" id="Path-Copy" fill="#000000"></path>
            <path d="M14,165.99039 L14,165.99039 L14,223.00961 C14,232.943408 22.058759,241 31.9985933,241 L125.001407,241 C134.943369,241 143,232.945688 143,223.00961 L143,165.99039 C143,156.056592 134.941241,148 125.001407,148 L31.9985933,148 C22.0566312,148 14,156.054312 14,165.99039 L14,165.99039 Z M8,165.99039 C8,152.740864 18.7426621,142 31.9985933,142 L125.001407,142 C138.255464,142 149,152.743398 149,165.99039 L149,223.00961 C149,236.259136 138.257338,247 125.001407,247 L31.9985933,247 C18.7445362,247 8,236.256602 8,223.00961 L8,165.99039 L8,165.99039 Z" id="Rectangle-33" fill="#FFFFFF"></path>
            <path d="M26.6347656,214 L35.7167969,200.523438 L27.0253906,187.4375 L35.5458984,187.4375 L39.9892578,195.152344 L44.3349609,187.4375 L52.6113281,187.4375 L43.8710938,200.401367 L52.953125,214 L44.2861328,214 L39.6962891,206.016602 L35.0820312,214 L26.6347656,214 Z M66.6774902,205.906738 C67.8518125,207.155117 69.4757383,207.779297 71.5493164,207.779297 C73.6228945,207.779297 75.2468203,207.155117 76.4211426,205.906738 C77.5954649,204.65836 78.1826172,202.902192 78.1826172,200.638184 C78.1826172,198.289539 77.5848855,196.506923 76.3894043,195.290283 C75.1939231,194.073643 73.5805766,193.465332 71.5493164,193.465332 C69.5180563,193.465332 67.9047098,194.073643 66.7092285,195.290283 C65.5137473,196.506923 64.9160156,198.289539 64.9160156,200.638184 C64.9160156,202.902192 65.503168,204.65836 66.6774902,205.906738 L66.6774902,205.906738 Z M57.282959,194.227051 C58.4572813,192.132314 60.176421,190.555995 62.4404297,189.498047 C60.2187389,188.01692 58.7746615,186.414153 58.1081543,184.689697 C57.4416471,182.965242 57.1083984,181.351896 57.1083984,179.849609 C57.1083984,176.506494 58.3673377,173.655367 60.8852539,171.296143 C63.4031701,168.936919 66.9578221,167.757324 71.5493164,167.757324 C76.1408107,167.757324 79.6954627,168.936919 82.2133789,171.296143 C84.7312951,173.655367 85.9902344,176.506494 85.9902344,179.849609 C85.9902344,181.351896 85.6569858,182.965242 84.9904785,184.689697 C84.3239713,186.414153 82.8798939,187.911126 80.6582031,189.180664 C82.9222118,190.450202 84.6254826,192.132314 85.7680664,194.227051 C86.9106502,196.321788 87.4819336,198.659818 87.4819336,201.241211 C87.4819336,205.113301 86.0484356,208.408759 83.1813965,211.127686 C80.3143574,213.846612 76.3100843,215.206055 71.168457,215.206055 C66.0268298,215.206055 62.1336395,213.846612 59.4887695,211.127686 C56.8438995,208.408759 55.5214844,205.113301 55.5214844,201.241211 C55.5214844,198.659818 56.1086367,196.321788 57.282959,194.227051 L57.282959,194.227051 Z M67.2805176,184.959473 C68.3067271,186.017421 69.7296458,186.546387 71.5493164,186.546387 C73.3901459,186.546387 74.8130646,186.017421 75.8181152,184.959473 C76.8231658,183.901525 77.3256836,182.536792 77.3256836,180.865234 C77.3256836,179.045564 76.8231658,177.622645 75.8181152,176.596436 C74.8130646,175.570226 73.3901459,175.057129 71.5493164,175.057129 C69.7296458,175.057129 68.3067271,175.570226 67.2805176,176.596436 C66.254308,177.622645 65.7412109,179.045564 65.7412109,180.865234 C65.7412109,182.536792 66.254308,183.901525 67.2805176,184.959473 L67.2805176,184.959473 Z M103.06543,205.494141 C104.398444,207.059904 106.091136,207.842773 108.143555,207.842773 C110.153656,207.842773 111.735264,207.086352 112.888428,205.573486 C114.041591,204.060621 114.618164,202.098157 114.618164,199.686035 C114.618164,196.998847 113.962246,194.941169 112.650391,193.512939 C111.338535,192.08471 109.730478,191.370605 107.826172,191.370605 C106.281568,191.370605 104.916835,191.836096 103.731934,192.76709 C101.954581,194.142422 101.065918,196.36408 101.065918,199.432129 C101.065918,201.907727 101.732415,203.928378 103.06543,205.494141 L103.06543,205.494141 Z M113.792969,179.563965 C113.792969,178.823401 113.507327,178.008794 112.936035,177.120117 C111.962723,175.681308 110.492197,174.961914 108.524414,174.961914 C105.583319,174.961914 103.488613,176.612288 102.240234,179.913086 C101.563148,181.732756 101.097658,184.419904 100.84375,187.974609 C101.965175,186.641595 103.266431,185.668297 104.747559,185.054688 C106.228686,184.441078 107.921377,184.134277 109.825684,184.134277 C113.909363,184.134277 117.257718,185.520168 119.87085,188.291992 C122.483981,191.063816 123.790527,194.607889 123.790527,198.924316 C123.790527,203.219585 122.510429,207.006982 119.950195,210.286621 C117.389961,213.56626 113.412136,215.206055 108.016602,215.206055 C102.219047,215.206055 97.9450007,212.78339 95.1943359,207.937988 C93.057281,204.150534 91.9887695,199.262888 91.9887695,193.274902 C91.9887695,189.762515 92.13688,186.906098 92.4331055,184.705566 C92.9620795,180.791159 93.9882736,177.532728 95.5117188,174.930176 C96.8235743,172.708485 98.542714,170.92058 100.669189,169.566406 C102.795665,168.212233 105.339992,167.535156 108.302246,167.535156 C112.576356,167.535156 115.982897,168.630116 118.521973,170.820068 C121.061048,173.010021 122.489256,175.924624 122.806641,179.563965 L113.792969,179.563965 Z" id="x86" fill="#FFFFFF"></path>
        </g>
    </g>
</svg>