<svg id="Layer_1" data-name="Layer 1" xmlns="http://www.w3.org/2000/svg" viewBox="0 0 68.88 79.54"><defs><style>.cls-1{fill:#4b90c1;}.cls-2{fill:#56c2e4;}.cls-3{fill:#2c4a8d;}.cls-4{fill:#4568a3;}</style></defs><title>samsung-artik-1</title><g id="Page-1"><g id="ARTIK-SAMSUNG-LOGO-FULL-COLOR-CMYK-FINAL"><g id="Page-1-2" data-name="Page-1"><g id="IOT-Media-Page-Logos"><g id="ARTIK-SAMSUNG-LOGO-FULL-COLOR-CMYK-FINAL-2" data-name="ARTIK-SAMSUNG-LOGO-FULL-COLOR-CMYK-FINAL"><g id="Group-6"><g id="Fill-3-Clipped"><path id="Fill-3" class="cls-1" d="M35.49,13.73v26L58,52.73v-26l-22.53-13" transform="translate(-0.5 -0.29)"/></g><g id="Fill-5-Clipped"><path id="Fill-5" class="cls-2" d="M68.25,58.64L58,52.73v0.66l-0.56.32,10.21,5.9L35.51,78.2V66.4l-0.57.33-0.57-.33V78.2L2.2,59.62l10.21-5.91-0.55-.32V52.72L1.64,58.64V21.49l10.22,5.9V26.74l0.57-.33L2.2,20.51,34.36,1.94v11.8l0.57-.33h0l0.55,0.32V1.93L67.68,20.51l-10.22,5.9L58,26.74v0.66l10.22-5.9V58.64h0Zm0.57-38.79L35.49,0.61l-0.55-.32-0.58.34L0.5,20.18V60L34.37,79.51l0.57,0.33,0.57-.33L68.82,60.28,69.38,60V20.18l-0.57-.33h0Z" transform="translate(-0.5 -0.29)"/></g></g><path id="Fill-7" class="cls-3" d="M35.49,39.71v-26l-0.55-.32h0l-0.57.33v26l-22.5,13v0.67l0.55,0.32,22.52-13,22.54,13L58,53.39V52.73l-22.53-13" transform="translate(-0.5 -0.29)"/><path id="Fill-1" class="cls-4" d="M11.86,26.74v26l22.5-13v-26l-22.5,13" transform="translate(-0.5 -0.29)"/><path id="Fill-2" class="cls-2" d="M34.93,40.69l-22.52,13,22.53,13,22.53-13-22.54-13" transform="translate(-0.5 -0.29)"/></g></g></g></g></g></svg>