<svg xmlns="http://www.w3.org/2000/svg" viewBox="0 0 51.88 51.88"><defs><style>.cls-1{fill:#3aace2;}.cls-2{fill:#fff;}</style></defs><title>Asset 1</title><g id="Layer_2" data-name="Layer 2"><g id="Layer_1-2" data-name="Layer 1"><rect class="cls-1" width="51.88" height="51.88"/><polygon class="cls-2" points="42.53 35.52 25.94 45.1 9.35 35.52 9.35 16.36 25.94 6.78 42.53 16.36 42.53 35.52"/><path class="cls-1" d="M17.66,21.84H11.09V19.4h9.8v1.94L16,32.44H13Z"/><path class="cls-1" d="M25.24,23l-2.15,2.21L21.5,23.52l4.11-4.13H28v13h-2.8Z"/><path class="cls-1" d="M35.39,19.2c3.72,0,5.4,3.36,5.4,6.73s-1.68,6.75-5.4,6.75S30,29.3,30,25.93,31.65,19.2,35.39,19.2Zm0,2.46c-1.88,0-2.58,1.86-2.58,4.26s.7,4.28,2.58,4.28S38,28.34,38,25.93,37.25,21.67,35.39,21.67Z"/></g></g></svg>