<?xml version="1.0" encoding="UTF-8" standalone="no"?>
<svg width="256px" height="141px" viewBox="0 0 256 141" version="1.1" xmlns="http://www.w3.org/2000/svg" xmlns:xlink="http://www.w3.org/1999/xlink" xmlns:sketch="http://www.bohemiancoding.com/sketch/ns">
    <!-- Generator: Sketch 3.3.3 (12081) - http://www.bohemiancoding.com/sketch -->
    <title>odroid + XU4</title>
    <desc>Created with Sketch.</desc>
    <defs></defs>
    <g id="Page-1" stroke="none" stroke-width="1" fill="none" fill-rule="evenodd" sketch:type="MSPage">
        <g id="Odroid---XU4---bottom" sketch:type="MSArtboardGroup" transform="translate(0.000000, -59.000000)">
            <g id="odroid-+-XU4" sketch:type="MSLayerGroup" transform="translate(0.000000, 59.000000)">
                <g id="odroid" fill="#A3CB37" sketch:type="MSShapeGroup">
                    <path d="M166.720549,0.166615385 C168.446683,0.335861538 170.16623,0.504230769 171.850209,0.979523077 C174.455437,1.71438462 176.849894,2.86315385 179.019527,4.46222308 C182.11436,6.74353846 184.476322,9.63168462 186.081262,13.1319231 C187.178154,15.5250462 187.862285,18.0295385 188.003238,20.6550462 C188.224549,24.7717615 188.039684,28.8946154 188.099842,33.0144 C188.123115,34.6292538 188.103355,36.2445462 187.86975,37.8405462 C187.433276,40.8269077 186.458895,43.6361308 184.869763,46.2142846 C182.095918,50.7124615 178.217715,53.8803462 173.240425,55.6596231 C170.352851,56.6917615 167.362525,57.0486692 164.288768,56.8206692 C160.207698,56.5181308 156.503822,55.1966077 153.1767,52.8455769 C149.378415,50.1613154 146.680974,46.6242462 145.080425,42.2475231 C144.135904,39.6641077 143.750806,37.0008923 143.755197,34.2648923 C143.761345,30.3367154 143.760906,26.4085385 143.755636,22.4799231 C143.750367,18.2343 144.816521,14.2815692 147.07178,10.6796077 C149.606312,6.63085385 153.087122,3.66641538 157.5186,1.84416923 C159.387005,1.07598462 161.312055,0.511246154 163.341612,0.371815385 C163.493544,0.361292308 163.61869,0.331476923 163.664796,0.166615385 C164.683087,0.166615385 165.701818,0.166615385 166.720549,0.166615385 L166.720549,0.166615385 Z M174.428652,28.5210462 L174.438312,28.5210462 C174.438312,26.4515077 174.432604,24.3824077 174.440508,22.3128692 C174.44446,21.3951692 174.310093,20.5103538 174.026429,19.6308 C172.736329,15.6294 168.400576,12.9306692 164.000274,14.0132308 C160.130415,14.9655692 157.459321,18.2904231 157.442635,22.2624462 C157.425509,26.4186231 157.439122,30.5748 157.438244,34.7314154 C157.438244,35.6131615 157.555046,36.4817538 157.826415,37.3174615 C159.34529,41.9980385 164.447286,44.5551462 169.126422,42.6903692 C172.049125,41.5249385 174.355321,38.4083538 174.419431,35.2549385 C174.465537,33.0113308 174.428652,30.7655308 174.428652,28.5210462 L174.428652,28.5210462 Z" id="Shape"></path>
                    <path d="M23.0795197,0.166615385 C25.7348062,0.333230769 28.3255437,0.792738462 30.7898182,1.8411 C36.0876569,4.09479231 40.0031835,7.79365385 42.4845832,12.9898615 C43.9577907,16.0753154 44.5914237,19.3392231 44.576494,22.7482615 C44.5584906,26.8334077 44.7029571,30.9238154 44.544,35.0032615 C44.1856878,44.1969231 39.7809949,50.8483846 31.5095163,54.8971385 C28.4023877,56.4177231 25.0629708,57.0359538 21.6150943,56.8737231 C14.5994648,56.5435615 8.94331389,53.5598308 4.6462024,48.0128538 C2.76945455,45.5903538 1.53160892,42.8587385 0.786881647,39.9008769 C0.392123499,38.3333769 0.209454545,36.7294846 0.201989708,35.1159462 C0.182229846,30.7146692 0.0553276158,26.3085692 0.223945111,21.9138692 C0.57084048,12.8548154 4.96016467,6.3213 13.0472178,2.25632308 C15.7310463,0.907176923 18.6278422,0.357784615 21.6041166,0.166615385 L23.0795197,0.166615385 L23.0795197,0.166615385 Z M30.8820309,28.5381462 C30.8820309,26.4523846 30.8714923,24.3661846 30.8855437,22.2808615 C30.894765,20.9773154 30.5913413,19.7531308 30.0336741,18.5855077 C28.0756913,14.4858923 23.0940103,12.6040154 18.9690292,14.4994846 C15.6840617,16.0086692 13.9386072,18.6723231 13.8551767,22.2703385 C13.7616467,26.3173385 13.8319039,30.3678462 13.8332213,34.4170385 C13.8336604,35.7797769 14.0980034,37.0842 14.649084,38.3373231 C16.3765352,42.2633077 21.2251664,44.3131154 25.201729,42.8293615 C28.5758353,41.5705385 30.9579966,38.2978615 30.8890566,34.5854077 C30.8512933,32.5702385 30.8820309,30.5541923 30.8820309,28.5381462 L30.8820309,28.5381462 Z" id="Shape"></path>
                    <path d="M117.821475,0.166615385 C118.430957,0.464330769 119.111575,0.411715385 119.754868,0.539307692 C122.948501,1.17376154 125.766696,2.56719231 128.249413,4.64023846 C131.625276,7.45998462 133.835746,11.0409 134.943177,15.2755615 C135.612377,17.8335462 135.791094,20.4384462 135.46352,23.0885077 C134.973475,27.0539538 133.547691,30.6085615 131.052679,33.7295308 C130.773846,34.0785462 130.776919,34.3021615 131.060583,34.6599462 C133.202991,37.3613077 134.603746,40.4046692 135.240892,43.8001154 C135.516652,45.2702769 135.638724,46.7457 135.63082,48.2399769 C135.616329,50.9400231 135.618086,53.6409462 135.636528,56.3418692 C135.639163,56.7676154 135.539925,56.9083615 135.089839,56.9061692 C130.945098,56.8890692 126.800357,56.886 122.655616,56.9083615 C122.13659,56.9109923 122.051842,56.7233308 122.054477,56.2699615 C122.069846,53.4111923 122.078189,50.5528615 122.054477,47.6940923 C122.036913,45.5793923 121.264961,43.7773154 119.652995,42.3738 C118.627238,41.4810923 117.428473,41.0040462 116.058456,41.0031692 C110.332926,41.0001 104.607396,40.9948385 98.8823053,41.0136923 C98.3856741,41.0154462 98.2807273,40.8681231 98.2829228,40.4007231 C98.3004871,36.2620846 98.3013654,32.1234462 98.2816055,27.9848077 C98.2794099,27.5064462 98.4251938,27.4082308 98.8765969,27.4091077 C104.356226,27.4244538 109.839808,27.2841462 115.313729,27.4617231 C119.88177,27.6094846 122.463726,23.5576615 122.017153,19.7360308 C121.781352,17.7230538 120.914113,16.0441846 119.253407,14.8151769 C118.243019,14.0671615 117.103094,13.7598 115.861297,13.7602385 C110.223588,13.7615538 104.58588,13.7527846 98.9486106,13.7733923 C98.4124597,13.7751462 98.2767753,13.6392231 98.2798491,13.1056154 C98.3031218,8.98451538 98.2921441,4.86341538 98.2939005,0.742315385 C98.2939005,0.550269231 98.3140995,0.358661538 98.3250772,0.166615385 C104.823877,0.166615385 111.322676,0.166615385 117.821475,0.166615385 L117.821475,0.166615385 Z" id="Shape"></path>
                    <path d="M235.116021,0.166615385 C235.945057,0.399876923 236.809221,0.390669231 237.653187,0.546323077 C240.708501,1.10930769 243.514401,2.26509231 246.072645,4.00578462 C249.794086,6.53702308 252.516995,9.89914615 254.222491,14.0579538 C255.170964,16.3717154 255.759808,18.7876385 255.777811,21.2982692 C255.811623,26.0498769 255.854216,30.8032385 255.773859,35.5539692 C255.69482,40.2218308 254.114031,44.4152769 251.291444,48.1194 C248.589173,51.6661154 245.107925,54.1894615 240.896878,55.6767231 C238.718463,56.4462231 236.462326,56.8710923 234.149544,56.8820538 C229.02164,56.9061692 223.894175,56.8899462 218.765832,56.9039769 C218.378539,56.9048538 218.256027,56.8053231 218.257345,56.4045692 C218.271396,52.1957769 218.273153,47.9878615 218.255588,43.7790692 C218.253832,43.3515692 218.411911,43.3024615 218.773736,43.3033385 C223.638614,43.3129846 228.503053,43.3309615 233.367492,43.3033385 C237.222861,43.2814154 239.929523,41.4482077 241.516021,37.9563 C242.001674,36.8873308 242.148336,35.7398769 242.150532,34.5770769 C242.158436,30.5265692 242.192247,26.4751846 242.142628,22.4251154 C242.096082,18.5991 240.222847,15.9222923 236.747746,14.3657538 C235.713647,13.9023 234.594799,13.7611154 233.462779,13.7606769 C228.59834,13.7593615 223.733901,13.7536615 218.869461,13.7703231 C218.390834,13.7720769 218.252954,13.6488692 218.255149,13.1591077 C218.270957,8.82842308 218.258662,4.4973 218.25471,0.166176923 C223.874854,0.166615385 229.495437,0.166615385 235.116021,0.166615385 L235.116021,0.166615385 Z" id="Shape"></path>
                    <path d="M69.6601029,0.166615385 C70.4698182,0.405138462 71.3177358,0.390669231 72.143259,0.547638462 C74.5539623,1.00539231 76.8241509,1.81610769 78.9520686,3.0324 C83.7541544,5.77585385 87.0891801,9.76146923 88.990518,14.934 C89.7677393,17.0478231 90.2011389,19.2510923 90.2169468,21.5065385 C90.2490017,26.1187154 90.3284803,30.7330846 90.2068473,35.3421923 C90.0285695,42.0743308 87.2235472,47.5963154 82.0600755,51.9134077 C79.6845009,53.8996385 76.9642264,55.2663231 73.9892693,56.1046615 C72.1450154,56.6242385 70.2507033,56.8877538 68.3296055,56.8908231 C63.3242127,56.8982769 58.3188199,56.8908231 53.3134271,56.9039769 C52.9129605,56.9052923 52.7733242,56.8171615 52.7750806,56.3848385 C52.7922058,52.1931462 52.7926449,48.0023308 52.7746415,43.8106385 C52.7728851,43.3739308 52.9182298,43.3015846 53.3107925,43.3024615 C58.1229777,43.3147385 62.935163,43.3112308 67.7473482,43.3103538 C71.6347719,43.3099154 74.6141201,41.3298231 76.0776672,37.7497846 C76.4026072,36.9544154 76.6111835,36.1165154 76.61294,35.2505538 C76.6199657,30.7611462 76.6427993,26.2713 76.6072316,21.7823308 C76.5817633,18.5964692 74.0081509,15.2431154 70.9704014,14.2662231 C69.871753,13.9128231 68.7572967,13.7584846 67.6103465,13.7593615 C62.8684185,13.7628692 58.1260515,13.7536615 53.3845626,13.7720769 C52.8980309,13.7738308 52.7728851,13.6414154 52.7755197,13.1608615 C52.7983533,8.82973846 52.7948405,4.49817692 52.7992316,0.166615385 C58.4189365,0.166615385 64.0395197,0.166615385 69.6601029,0.166615385 L69.6601029,0.166615385 Z" id="Shape"></path>
                    <path d="M210.350326,0.166615385 C210.343739,0.639715385 210.332322,1.11237692 210.332322,1.58547692 C210.331005,19.8061846 210.32837,38.0264538 210.344178,56.2471615 C210.344617,56.7948 210.192686,56.9114308 209.66883,56.9083615 C205.541654,56.8864385 201.414477,56.8895077 197.2873,56.9052923 C196.853901,56.9066077 196.726998,56.7943615 196.727437,56.3523923 C196.737976,37.7633769 196.736659,19.1748 196.737537,0.585784615 C196.737537,0.445915385 196.748954,0.306046154 196.75554,0.166176923 C201.287136,0.166615385 205.818731,0.166615385 210.350326,0.166615385 L210.350326,0.166615385 Z" id="Shape"></path>
                </g>
                <path d="M125.414551,103.144531 L139.525879,79.5703125 L149.403809,79.5703125 L130.229004,109.536133 L149.818848,140 L140.06543,140 L125.580566,116.010742 L111.054199,140 L101.17627,140 L120.766113,109.536133 L101.591309,79.5703125 L111.38623,79.5703125 L125.414551,103.144531 Z M203.81543,79.5703125 L203.81543,120.534668 C203.81543,127.119987 201.678,132.155744 197.403076,135.64209 C193.128152,139.128435 187.545933,140.871582 180.65625,140.871582 C174.015592,140.871582 168.627055,139.121518 164.490479,135.621338 C160.353902,132.121158 158.285645,127.092318 158.285645,120.534668 L158.285645,79.5703125 L166.461914,79.5703125 L166.461914,120.534668 C166.461914,125.10012 167.762357,128.565662 170.363281,130.931396 C172.964206,133.297131 176.395161,134.47998 180.65625,134.47998 C185.138694,134.47998 188.756415,133.297131 191.509521,130.931396 C194.262628,128.565662 195.63916,125.10012 195.63916,120.534668 L195.63916,79.5703125 L203.81543,79.5703125 Z M247.27002,119.663086 L255.612305,119.663086 L255.612305,126.054688 L247.27002,126.054688 L247.27002,140 L239.135254,140 L239.135254,126.054688 L211.991699,126.054688 L211.991699,121.447754 L238.637207,79.5703125 L247.27002,79.5703125 L247.27002,119.663086 Z M220.70752,119.663086 L239.135254,119.663086 L239.135254,91.315918 L238.88623,91.2744141 L238.097656,93.3496094 L220.70752,119.663086 Z" id="XU4" fill="#2A2A2D" sketch:type="MSShapeGroup"></path>
            </g>
        </g>
    </g>
</svg>