<?xml version="1.0" encoding="UTF-8" standalone="no"?>
<svg width="54px" height="70px" viewBox="0 0 54 70" version="1.1" xmlns="http://www.w3.org/2000/svg" xmlns:xlink="http://www.w3.org/1999/xlink" xmlns:sketch="http://www.bohemiancoding.com/sketch/ns">
    <!-- Generator: Sketch 3.2.2 (9983) - http://www.bohemiancoding.com/sketch -->
    <title>beaglebone-black + logo-ubuntu_cof-orange-hex</title>
    <desc>Created with Sketch.</desc>
    <defs>
        <rect id="path-1" x="0" y="0" width="51.05" height="70"></rect>
        <rect id="path-3" x="0" y="0" width="51.05" height="70"></rect>
        <rect id="path-5" x="0" y="0" width="51.05" height="70"></rect>
        <rect id="path-7" x="0" y="0" width="51.05" height="70"></rect>
        <rect id="path-9" x="0" y="0" width="51.05" height="70"></rect>
        <rect id="path-11" x="0" y="0" width="51.05" height="70"></rect>
        <rect id="path-13" x="0" y="0" width="51.05" height="70"></rect>
        <rect id="path-15" x="0" y="0" width="51.05" height="70"></rect>
        <rect id="path-17" x="0" y="0" width="51.05" height="70"></rect>
        <rect id="path-19" x="0" y="0" width="51.05" height="70"></rect>
        <rect id="path-21" x="0" y="0" width="51.05" height="70"></rect>
        <rect id="path-23" x="0" y="0" width="51.05" height="70"></rect>
        <rect id="path-25" x="0" y="0" width="51.05" height="70"></rect>
        <rect id="path-27" x="0" y="0" width="51.05" height="70"></rect>
        <rect id="path-29" x="0" y="0" width="51.05" height="70"></rect>
        <rect id="path-31" x="0" y="0" width="51.05" height="70"></rect>
    </defs>
    <g id="Page-1" stroke="none" stroke-width="1" fill="none" fill-rule="evenodd" sketch:type="MSPage">
        <g id="beaglebone-black-+-logo-ubuntu_cof-orange-hex" sketch:type="MSLayerGroup">
            <g id="beaglebone-black">
                <g id="Group">
                    <g id="Clipped">
                        <mask id="mask-2" sketch:name="SVGID_1_" fill="white">
                            <use xlink:href="#path-1"></use>
                        </mask>
                        <g id="SVGID_1_"></g>
                        <path d="M11.084,69.412 C9.806,68.578 9.211,67.801 9.044,66.357 C2.99,65.801 4.657,59.693 8.6,57.193 C8.489,56.471 8.378,55.75 8.322,55.083 C6.378,52.473 -4.674,36.867 3.602,36.09 C3.87,36.108 4.148,36.274 4.379,36.533 C5.823,38.699 6.379,41.81 7.656,44.254 C8.656,38.978 8.878,38.756 9.211,37.312 C6.434,37.312 3.212,34.834 1.658,32.702 C0.809,31.537 0.452,29.415 0.448,28.808 C0.22,27.42 0.159,26.311 0.265,24.982 C0.32,24.296 1.123,22.195 1.239,21.937 C3.958,15.858 3.532,15.779 6.378,9.654 C7.932,6.311 8.822,5.766 12.099,4.6 C17.264,0.379 23.928,-1.065 30.148,1.934 C34.591,4.489 36.257,8.209 38.146,12.763 C41.421,13.985 44.254,15.485 46.919,17.762 C51.919,19.15 50.585,21.872 50.585,26.259 C49.975,29.313 49.642,29.98 49.642,30.535 C51.141,34.256 49.954,39.552 45.032,38.31 C44.148,38.087 43.588,37.2 42.922,36.644 C41.533,37.144 40.146,37.644 38.813,38.144 C38.885,38.73 39.22,40.271 39.423,41.199 C39.923,46.586 39.923,51.418 38.757,56.638 C41.867,58.97 44.162,62.095 40.967,65.245 C40.172,66.03 40.034,66.078 38.313,66.578 C38.036,67.745 37.702,68.411 36.702,69.188 C35.253,69.978 32.249,70.213 30.405,69.415 C29.614,69.073 28.393,68.493 27.372,67.8 C26.095,66.412 25.929,65.357 25.596,63.579 C24.318,63.579 23.041,63.636 21.763,63.69 C21.374,66.133 20.319,67.633 18.209,69.022 C15.738,70.297 12.864,69.953 11.084,69.412" id="Shape" fill="#231F20" sketch:type="MSShapeGroup" mask="url(#mask-2)"></path>
                    </g>
                    <g id="Clipped">
                        <mask id="mask-4" sketch:name="SVGID_1_" fill="white">
                            <use xlink:href="#path-3"></use>
                        </mask>
                        <g id="SVGID_1_"></g>
                        <path d="M13.487,44.42 C14.042,40.922 14.598,39.644 17.708,38.088 C21.874,38.088 26.705,38.699 26.705,33.201 C24.983,28.147 23.262,23.982 26.372,19.206 C28.815,16.762 29.982,15.54 29.315,11.986 C27.816,8.432 25.816,4.933 23.873,1.545 C23.873,1.378 23.873,1.378 24.983,1.545 C24.983,1.712 24.983,1.878 25.039,2.045 C28.871,8.155 29.871,12.153 36.979,13.431 C39.812,14.541 42.644,15.874 45.087,17.652 C44.833,17.832 44.767,17.638 43.032,18.652 C41.421,20.263 40.354,21.058 40.755,23.04 C42.421,26.816 46.198,26.816 49.475,24.984 C48.253,31.093 36.923,32.148 32.369,32.759 C28.148,34.759 37.258,36.092 38.424,36.314 C35.202,37.647 30.149,36.924 26.761,36.87 C26.705,37.203 26.651,37.536 26.651,37.87 C28.317,38.036 29.983,38.202 31.649,38.425 C32.648,40.035 33.815,41.646 34.037,43.59 C33.315,49.144 33.981,55.53 34.647,61.084 C35.37,62.528 37.87,65.86 35.98,67.193 C32.815,67.803 29.316,67.137 28.039,64.083 C28.372,59.308 28.761,54.53 28.761,49.755 C28.65,49.477 28.538,49.199 28.484,48.921 C28.318,49.144 28.15,49.421 27.984,49.698 C27.707,53.641 27.429,57.585 27.207,61.528 C25.93,62.139 22.597,61.751 21.042,61.751 C20.597,56.086 20.597,56.086 20.431,51.198 C20.042,49.421 20.042,49.421 19.764,48.921 C18.209,53.698 20.431,59.696 19.875,64.694 C18.209,67.249 15.21,67.749 12.267,67.193 C10.323,65.971 12.878,62.305 13.377,60.917 C14.044,56.03 14.099,50.921 14.099,45.978 C13.988,45.478 13.876,44.979 13.821,44.535 C13.709,44.476 13.598,44.42 13.487,44.42" id="Shape" fill="#FFFFFF" sketch:type="MSShapeGroup" mask="url(#mask-4)"></path>
                    </g>
                    <g id="Clipped">
                        <mask id="mask-6" sketch:name="SVGID_1_" fill="white">
                            <use xlink:href="#path-5"></use>
                        </mask>
                        <g id="SVGID_1_"></g>
                        <path d="M3.102,41.643 C3.602,41.144 4.102,40.7 4.601,40.255 C5.712,43.198 6.989,45.697 9.1,48.086 C9.544,44.254 10.156,40.699 11.211,37.033 C18.542,36.922 23.318,34.812 23.707,26.981 C23.586,26.027 23.45,25.059 23.263,24.037 C20.93,16.429 18.986,9.264 18.375,7.765 C17.375,5.932 16.32,5.322 14.543,4.433 C17.598,2.6 20.097,1.212 23.873,1.545 C25.817,4.933 27.817,8.432 29.316,11.986 C29.983,15.541 28.816,16.762 26.373,19.206 C23.263,23.982 24.984,28.147 26.706,33.201 C26.706,38.699 21.874,38.089 17.709,38.089 C14.599,39.644 14.043,40.922 13.488,44.42 C12.378,49.418 12.71,55.194 12.433,60.359 C11.822,61.692 11.211,63.025 10.6,64.413 C7.046,64.413 6.213,63.025 7.657,59.748 C8.601,58.638 9.49,58.138 10.767,57.471 C10.767,53.862 7.713,50.973 5.935,48.086 C4.435,45.143 4.435,45.143 3.102,41.643" id="Shape" fill="#B28D2F" sketch:type="MSShapeGroup" mask="url(#mask-6)"></path>
                    </g>
                    <g id="Clipped">
                        <mask id="mask-8" sketch:name="SVGID_1_" fill="white">
                            <use xlink:href="#path-7"></use>
                        </mask>
                        <g id="SVGID_1_"></g>
                        <path d="M34.036,43.587 C33.814,41.643 32.647,40.033 31.648,38.422 C33.48,38.2 35.369,38.033 37.257,37.867 C39.145,44.865 39.034,50.306 37.423,57.36 C41.032,59.137 43.921,64.468 37.589,64.468 C36.923,63.191 36.312,61.913 35.701,60.636 C35.368,55.694 35.035,50.695 34.924,45.697 C34.758,44.865 34.592,44.254 34.036,43.587" id="Shape" fill="#B28D2F" sketch:type="MSShapeGroup" mask="url(#mask-8)"></path>
                    </g>
                    <g id="Clipped">
                        <mask id="mask-10" sketch:name="SVGID_1_" fill="white">
                            <use xlink:href="#path-9"></use>
                        </mask>
                        <g id="SVGID_1_"></g>
                        <path d="M3.102,41.643 C2.824,40.311 2.102,38.588 2.769,37.256 C3.032,37.012 3.266,36.942 3.491,37.256 C3.991,38.311 4.491,39.033 4.602,40.255 C4.102,40.699 3.602,41.144 3.102,41.643" id="Shape" fill="#FFFFFF" sketch:type="MSShapeGroup" mask="url(#mask-10)"></path>
                    </g>
                    <g id="Clipped">
                        <mask id="mask-12" sketch:name="SVGID_1_" fill="white">
                            <use xlink:href="#path-11"></use>
                        </mask>
                        <g id="SVGID_1_"></g>
                        <path d="M45.811,36.367 C44.7,35.7 42.922,33.979 42.756,32.757 C44.533,32.202 46.031,31.313 47.643,30.314 C49.753,31.924 49.42,34.757 47.42,36.202 C46.865,36.494 46.311,36.497 45.811,36.367" id="Shape" fill="#EE7A22" sketch:type="MSShapeGroup" mask="url(#mask-12)"></path>
                    </g>
                    <g id="Clipped">
                        <mask id="mask-14" sketch:name="SVGID_1_" fill="white">
                            <use xlink:href="#path-13"></use>
                        </mask>
                        <g id="SVGID_1_"></g>
                        <path d="M11.376,35.812 C-4.785,32.591 4.101,18.15 9.1,8.154 C11.933,4.321 15.654,5.154 17.764,8.987 C19.653,16.151 19.653,16.151 21.874,23.093 C22.429,26.536 23.02,29.425 21.097,32.59 C18.041,35.645 15.542,35.701 11.376,35.812" id="Shape" fill="#B28D2F" sketch:type="MSShapeGroup" mask="url(#mask-14)"></path>
                    </g>
                    <g id="Clipped">
                        <mask id="mask-16" sketch:name="SVGID_1_" fill="white">
                            <use xlink:href="#path-15"></use>
                        </mask>
                        <g id="SVGID_1_"></g>
                        <path d="M12.099,34.257 C11.488,34.09 10.877,33.924 10.322,33.812 C14.654,31.48 18.041,29.425 20.929,25.26 C21.04,25.26 21.151,25.316 21.262,25.371 C21.263,31.868 18.264,33.535 12.099,34.257" id="Shape" fill="#9C7A32" sketch:type="MSShapeGroup" mask="url(#mask-16)"></path>
                    </g>
                    <g id="Clipped">
                        <mask id="mask-18" sketch:name="SVGID_1_" fill="white">
                            <use xlink:href="#path-17"></use>
                        </mask>
                        <g id="SVGID_1_"></g>
                        <path d="M42.645,21.538 C42.645,19.761 47.477,17.984 48.587,19.095 C47.143,20.983 44.922,21.372 42.645,21.538" id="Shape" fill="#FFFFFF" sketch:type="MSShapeGroup" mask="url(#mask-18)"></path>
                    </g>
                    <g id="Clipped">
                        <mask id="mask-20" sketch:name="SVGID_1_" fill="white">
                            <use xlink:href="#path-19"></use>
                        </mask>
                        <g id="SVGID_1_"></g>
                        <path d="M23.153,14.302 C22.06,14.025 20.485,13.041 21.484,11.264 C21.912,10.786 22.863,10.541 23.533,10.47 C26.289,10.173 28.414,12.817 24.928,14.291 C24.354,14.429 23.907,14.493 23.153,14.302" id="Shape" fill="#404041" sketch:type="MSShapeGroup" mask="url(#mask-20)"></path>
                    </g>
                    <g id="Clipped">
                        <mask id="mask-22" sketch:name="SVGID_1_" fill="white">
                            <use xlink:href="#path-21"></use>
                        </mask>
                        <g id="SVGID_1_"></g>
                        <path d="M24.983,1.545 C29.482,2.322 33.425,4.6 35.257,8.987 C32.758,9.209 31.814,10.986 34.202,12.375 C34.868,12.575 36.478,12.282 36.736,12.184 C36.792,12.573 36.867,13.041 36.978,13.43 C29.87,12.153 28.87,8.154 25.038,2.045 C24.983,1.878 24.983,1.712 24.983,1.545" id="Shape" fill="#B28D2F" sketch:type="MSShapeGroup" mask="url(#mask-22)"></path>
                    </g>
                    <g id="Clipped">
                        <mask id="mask-24" sketch:name="SVGID_1_" fill="white">
                            <use xlink:href="#path-23"></use>
                        </mask>
                        <g id="SVGID_1_"></g>
                        <path d="M22.762,11.986 C22.651,11.597 22.484,11.597 22.429,11.265 C22.818,11.098 22.818,11.098 23.484,11.154 C23.595,11.265 23.395,11.376 23.506,11.543 C23.339,11.765 23.306,11.742 23.194,11.965 C22.917,11.964 22.984,11.93 22.762,11.986" id="Shape" fill="#FFFFFF" sketch:type="MSShapeGroup" mask="url(#mask-24)"></path>
                    </g>
                    <g id="Clipped">
                        <mask id="mask-26" sketch:name="SVGID_1_" fill="white">
                            <use xlink:href="#path-25"></use>
                        </mask>
                        <g id="SVGID_1_"></g>
                        <path d="M33.914,10.553 C33.803,10.109 33.747,10.398 33.969,10.064 C34.858,10.064 34.702,9.82 34.535,10.653 C34.258,10.708 34.136,10.498 33.914,10.553" id="Shape" fill="#FFFFFF" sketch:type="MSShapeGroup" mask="url(#mask-26)"></path>
                    </g>
                    <g id="Clipped">
                        <mask id="mask-28" sketch:name="SVGID_1_" fill="white">
                            <use xlink:href="#path-27"></use>
                        </mask>
                        <g id="SVGID_1_"></g>
                        <path d="M45.381,31.665 C46.434,32.696 47.207,33.882 47.729,35.568 C47.791,35.466 47.872,35.445 47.933,35.344 C47.732,34.194 47.073,32.937 45.729,31.461 C45.633,31.542 45.477,31.583 45.381,31.665" id="Shape" fill="#AA3123" sketch:type="MSShapeGroup" mask="url(#mask-28)"></path>
                    </g>
                    <g id="Clipped">
                        <mask id="mask-30" sketch:name="SVGID_1_" fill="white">
                            <use xlink:href="#path-29"></use>
                        </mask>
                        <g id="SVGID_1_"></g>
                        <path d="M34.171,9.849 C34.525,9.849 34.815,10.076 34.815,10.355 C34.815,10.634 34.526,10.861 34.171,10.861 C33.816,10.861 33.527,10.634 33.527,10.355 C33.527,10.076 33.816,9.849 34.171,9.849" id="Shape" fill="#FFFFFF" sketch:type="MSShapeGroup" mask="url(#mask-30)"></path>
                    </g>
                    <g id="Clipped">
                        <mask id="mask-32" sketch:name="SVGID_1_" fill="white">
                            <use xlink:href="#path-31"></use>
                        </mask>
                        <g id="SVGID_1_"></g>
                        <path d="M23.067,11.041 C23.46,11.041 23.777,11.291 23.777,11.6 C23.777,11.909 23.459,12.159 23.067,12.159 C22.675,12.159 22.357,11.909 22.357,11.6 C22.357,11.292 22.675,11.041 23.067,11.041" id="Shape" fill="#FFFFFF" sketch:type="MSShapeGroup" mask="url(#mask-32)"></path>
                    </g>
                </g>
            </g>
            <g id="logo-ubuntu_cof-orange-hex" transform="translate(30.000000, 44.000000)" sketch:type="MSShapeGroup">
                <path d="M11.4782148,22.9565915 C5.13888028,22.9565915 0,17.8175493 0,11.4784577 C0,5.13896127 5.1387993,0 11.4781338,0 C17.8174683,0 22.9566725,5.13896127 22.9566725,11.4784577 C22.9566725,17.8174683 17.8175493,22.9565915 11.4782148,22.9565915 Z" id="Shape" stroke="#231F20" fill="#DD4814"></path>
                <path d="M3.67319718,9.94604225 C2.82665141,9.94604225 2.1407007,10.631993 2.1407007,11.4785387 C2.1407007,12.3247606 2.82665141,13.0107923 3.67319718,13.0107923 C4.51941901,13.0107923 5.2054507,12.3247606 5.2054507,11.4785387 C5.2054507,10.631912 4.5195,9.94604225 3.67319718,9.94604225 L3.67319718,9.94604225 Z M14.6149613,16.910993 C13.8819577,17.3341444 13.6310634,18.2709894 14.0540528,19.003669 C14.4772852,19.7366725 15.4140493,19.9877289 16.1470528,19.5645775 C16.8798134,19.141507 17.1308697,18.204662 16.7077183,17.4717394 C16.2846479,16.7390599 15.3477218,16.4879225 14.6149613,16.910993 L14.6149613,16.910993 Z M7.00188028,11.4782958 C7.00188028,9.96377817 7.75448239,8.62605282 8.90537324,7.81603169 L7.78501408,5.93934507 C6.44388732,6.83537324 5.44630282,8.20516901 5.03189789,9.8095 C5.5159507,10.2040634 5.82523592,10.8048979 5.82523592,11.4784577 C5.82523592,12.1518556 5.5159507,12.7526901 5.0318169,13.1471725 C5.44614085,14.7516655 6.44380634,16.1214613 7.7849331,17.0174085 L8.90537324,15.1405599 C7.75448239,14.3307007 7.00188028,12.9930563 7.00188028,11.4782958 L7.00188028,11.4782958 Z M11.4783768,7.0017993 C13.817007,7.0017993 15.7353204,8.79490845 15.9364085,11.0813028 L18.1204366,11.0493944 C18.0129683,9.36132394 17.2755915,7.84542958 16.1423556,6.73130634 C15.559743,6.95142606 14.886669,6.91805986 14.3049472,6.58213028 C13.7224965,6.24587676 13.357007,5.67865141 13.2569085,5.06307746 C12.6906549,4.90636972 12.0946796,4.82092958 11.4784577,4.82092958 C10.4186761,4.82092958 9.41744718,5.06971831 8.52805986,5.51028169 L9.5927007,7.41830986 C10.165838,7.15162324 10.804493,7.0017993 11.4783768,7.0017993 L11.4783768,7.0017993 Z M11.4783768,15.9548732 C10.804412,15.9548732 10.165838,15.8050493 9.59261972,15.5383627 L8.5278169,17.4465528 C9.41728521,17.8869542 10.4185951,18.1358239 11.4783768,18.1358239 C12.0945986,18.1358239 12.6905739,18.0503838 13.2569085,17.8936761 C13.357007,17.2781021 13.7225775,16.7108768 14.3051092,16.3743803 C14.886831,16.0386127 15.5599049,16.0052465 16.1425176,16.2254472 C17.2756725,15.111243 18.0130493,13.5953486 18.1203556,11.9072782 L15.9363275,11.8753697 C15.7354014,14.162088 13.817007,15.9548732 11.4783768,15.9548732 L11.4783768,15.9548732 Z M14.6147183,6.04551761 C15.3476408,6.46883099 16.2845669,6.21769366 16.7075563,5.48501408 C17.1307887,4.75201056 16.8798944,3.81516549 16.1468908,3.3919331 C15.4140493,2.96886268 14.4772042,3.21991901 14.0539718,3.95292254 C13.6309014,4.68560211 13.8819577,5.62252817 14.6147183,6.04551761 L14.6147183,6.04551761 Z" id="Shape" fill="#FFFFFF"></path>
            </g>
        </g>
    </g>
</svg>